<mxfile host="65bd71144e">
    <diagram id="U0jM4MDSuD4LEgjkbHIe" name="第 1 页">
        <mxGraphModel dx="612" dy="680" grid="1" gridSize="10" guides="1" tooltips="1" connect="1" arrows="1" fold="1" page="1" pageScale="1" pageWidth="827" pageHeight="1169" math="0" shadow="0">
            <root>
                <mxCell id="0"/>
                <mxCell id="1" parent="0"/>
                <mxCell id="2" value="" style="shape=image;verticalLabelPosition=bottom;labelBackgroundColor=#ffffff;verticalAlign=top;aspect=fixed;imageAspect=0;image=data:image/png,iVBORw0KGgoAAAANSUhEUgAAAf4AAAGFCAYAAAAcipEnAAAgAElEQVR4AexdB3yTVfd+stuke9NJKR3svZeK8LlB8FNBBBkKguIWHH8H+jk/P7e4GCoIoqCgosiQvZfM0gKlLYW20J02SZMm/9+5L2nT3aRZbe/9/dK8733vOPdJmnvvuec8R2QymUzgiSPAEeAIcAQ4AhyBNoGAlEZZYTSwF10/8sEfbOCfPH4zez+XlY/3f9zHruPC/fHE3QPZtbkc3ZjLNjXPsk1z3Y0HzmHtrhTW9uh+HXDHkMRm92PZprmfhWsP4mTaFdb2rDF90DU2pFo/5nKWMvJxV30vCCwzRvzzbhgLy++QGTPL76Qrv+fmz9FSxrbwPefjblu/5/zzrv15y6UeENGO/4YnFmHpy8MII544AhwBjgBHgCPAEWiFCGTmlGJIYi+IW+HY+JA4AhwBjgBHgCPAEagHAT7x1wMMz+YIcAQ4AhwBjkBrRICp+kt0hSjQ5LbG8fExcQQ4AhwBjgBHgCNwDYFovwSu6uffBo4AR4AjwBHgCLQlBJiqf8z81W1pzHysHAGOAEeAI8ARaHMIlGkNbMz8jL/NffR8wBwBjgBHgCPQFhHIK9KxYbOJPzRA1RYx4GPmCHAEOAIcAY5Am0OAG/e1uY+cD5gjwBHgCHAE2iICeUVa9Irpzo372uKHz8fMEeAIcAQ4Am0PgUBfDzZobtzX9j57PmKOAEeAI8ARaIMIFBQLZ/yMq9+W8e8/KfDdU93+XYJZE3XlpWQUobCknD1PiPaFn7e8Wllz3ZIyPU6nFbJn3koZOsX6VStHN+aydfVTV55lm+a6l6+WgWgLKbULUiIqVLBvMNevS0Zb+ubjBurC0vw5WH42zvq8zX2zD5//4QhwBDgCbQwBtUaw6reZqz8w/SmoCn9rY7Dx4bZUBObvfgyzH57dUsXncnMEOAIcgWYjYObqt9m4j0/8zf4MeANORiCjxxkn98i74whwBDgC7oOAWqNH53ZdbDfu23kh3H1GwyXhCHAEOAIcAY4AR6BBBLw8Zew5M+57e/neBgvX9fDtrf3ryuZ5HAG3RGDu9nluKRcXiiPAEeAIOBsBNvHvPp7l7H55fxwBjgBHgCPAEeAIOBEBs2E7m/ht6XdIDF8s2IIbr8MR4AhwBDgCHAFXIsCM+/48cAKd4wU3u6YKw437mopUyyiXp/WFrkI4/3E3iUM98yERG5stFjfuazaEbtOARmcAuYS6Y/JRyeEhl7ijaFymNo6A2aqf+fEP6R6JAk2uVZB8srsn5nXm7nxWgeZGhS+qQ/BN8h3YfHEg4nwz0C0wFR4SgW/BjcRkolxUhyJTHYr0kgjcGrMND3Rah0CPIncTk8vjQAQqjCY8/+lB5ORrofKQoldiALxVMohEIgf2alvTxFtyODkP2vIKRIYo8dqs3m4pp22j47VaMgJm3ho28U98dR0+fXagVePZkNIe8zpbVYUXdhMEpm1+FSqZBjO7/IgX+n7tJlI1TYzDV5Iwb/fjkIkNWHjdf5pWCQAZ9z3do8nFeUE3QuDP3Rex+u90fPjUACg9bOYcc8mISCsx4/VdoPXJ1y8OdYkMvFOOgBkBo9HELtkZf6nGPVVmZmH5u/0QSC2MQkZJO3w47G10DTxnv4ad1FLv4GR8ft3rOFMYi8ySUCf1yrtxFQLf/JaKlRvTsGBmrxY36RNmxEr58oM9EeCjwI+b0lwFI++XI8AQyLpSxt5tNu6bM+gIh7KFITB18wLM2fYCNo19CGKRsPJrYUNg4krFFdgydgambH4ds7c93xKHwGVuAgLbj2QjO0+Dr18cwui1m1DFLYtEh3nhnbn9cCqtEAdPX3VLGblQbQsBNvEvf+l2q0d9U2K61XV4BdchcK4oEkEeBdhwxyzXCWHnnjfeMRPlFTJklwU22vJHw99utAwv4F4ILF6XinlTukMqsXl/4lYDevnBXvhk1Wl8/QtnkHSrD6YNCSO+9q/E3ryU1ln0tyGcWs1QF58ei1ldf2Rnja1lUGTpP6fbD1iRcnNrGRIfxzUEMrLV6N8lqNXh0aWDH3Yfs86QutWBwAfkMgQigoWgdGziz85TWy3I7UvHWl2HV3AdAnuyeyLO96LrBHBQz72Ck/Hrhesabf3dw1MaLcMLuAcChgoj3lx6DLPv6uQeAtlRiqcndUWAr8KOLfKmOALWI8Am/pnvbrC+Jq/RYhAwmYBeQadbjLzWChrve6HRKpnqsEbL8ALugcBfe7Og0VW4hzB2loLcD+8d3QHbD2fbuWXeHEegcQSazdzXeBe8hLsgcEXjj/Y+rZdpsb3PZWgMfBflLt+35sqRkVPa3Cbcun5MmBcu5wnW1W4tKBeu1SLAdvyhAYLe35pR/vrAL9YU52VdiADtdmO8L7tQAsd2TUaLxeUNf4ef6bXUsULw1u2GQF6hDj4q92SRtMcgg/09UFDsnmRZ9hgfb8P9EWAT/5fP3mS1pGpd6/3HtBoMN6+gN7Ys0hNHwBnlneOIZnmbDkKgtVjyOwge3ixHwCYEzMx9bOK3pYUJK261pRqvwxFwCQJlen4U4BLgeaccAY6A2yHAJv4x81e7nWBcII6APRGYv+dxezbH2+IIcAQ4Ai0OgYJiHZPZ5h2/Ss7PqFrcp84F5ghwBDgCHIE2i4BaY2BjZ4e/o/vHWg3EyonrgUKrq/EKbo5ATlkAJm18ExUm14YVpSA834+eZ7cofMTcl4Fpbo4+F89aBEwmE5796CCuFGqtrWrX8uHBSowZHo0BXYPt2i5vjCPgCATYxD9nXG+rw/I6QhjepusRmLr5NUg8/eDlFwSFytclAmlLCqApuoppmxdg7a2PuUQG3mnLQOD9FSeRrzYgICYJUpkH4IIovQZtGXIuncPC1cnomRAAhdy1i+aW8clxKV2BgL+PwNJrs7k3MfdtGfubK2TnfToAgfSSMDz09yvwj+sLqdzDAT00vUmvwHagl15bijt+/wjrbp3b9Mr1lDxyJRGNM/rXU5lnuyUCi9al4HyhEqGJiS6Vj/5fPHwCQNqHmW/uxtKXh7lUHt45R6A+BLw8BW88btxXH0JtLH/q5tch8Qpx+aRvCbvMQwW9vB2KdF6W2TZdLznNKaZtAs5NKy1am4IdR3LgExLlNhISK19g+85Y8dd5t5GJC8IRsEQgJ1/Dbm027rNsjF+3DgSUfiFuNxBPvyAcvNLZ7eTiArkWgSMp+ZB5KF0rRB29K1Q++Cclv44nPIsj4HoEyvVGJoTNEz9n7nP9h2hvCTy8/ezdZLPbkyt9cDwvvtnt9AxObnYbvAH3QUBdpoeHj3se3mTnCbsq90GLS8IRqI4Am/jXvjW+ei6/4wi4EQImU/MttqZ1WutGI+KicAQ4AhwB5yMQGiDYb9m84/9kd0/nS8175AhwBDgCHAGOAEfAJgTkMsHjhE38E19dZ3UjG1LaW12HV+AIuAqBudvnuapr3i9HgCPAEXALBIxGE5ODTfylGr1bCMWF4AhwBDgCHAGOAEfAMQhkXRHCQdus6p8z6IhjJOOtcgQ4AhwBjgBHgCPgMATYxL/8pdut7uCmxHSr6/AKHAFXIUCUvTy1LAQyrspQbmi+YWfLGjWXliPgOATE17b67M1LKdD4WdPdjJ9GWVOcl+UIcAQ4AlYhEBWox75zSmw64Y2CUk6DaxV4vDBHoA4EIoJVLJdN/LaE5c1RCw3U0TbP4gi4HQLcuM/tPpJGBdp80huBXgZ0idQgM0+GLSe9kJZr/Sal0Y54AY5AG0GgTGsRna+NjJkPkyPAEWhBCEQGlONivhyXCgCl3Ai51IRzuQqoPAT2MXcdCnH288QRcEcE8op0QBhgc5Cer8b/BVS449C4TK0NAd8+72Ax3oHUpIYfUiFDSbUgbOLYEOz1vA8Kcf3eKXE92uNwmmdrg6ZVjicpsSv0BiMuF8ogEZtA86hWL8I1TyQcy/BE3+6dcSa7xC3Hf/ibeei6WI/I6Aj8uZMTR7nlh9TGhWITPzH3FWhyrYIizLsMKLSqCi/MEbAJgaJDz2J2z3VYLj4FiUkLncgP+aLuCDYdRJRpMzLTMjEwditClfVzpN/kC2TEnrGpf17JuQj88fcJ0M7kiclDkJqtgNEkgkhUfRd98NgpeLtRgB5LhLqOn4fjq17HxYwsdI3ui6U/fom+A3pbFuHXHAGXIKD0sCDwsUUCtU4I72dLXV6HI2AtAgoU4zbjHcgRD4IBKgwzPo5CJOCweB7End7AZemNKIe3tc3y8m6GgNEIREfFYvjggThz2QM+nhXw8qhgu35BVBPLczOxq4mj8A7EC689C09PgR516t0z8ebL71Yrw284Aq5AINDXgrJ3wz7rw0hOWHGrK+TmfbZhBEJwGNMqwnGz8W7sEH+AvqY3MLUiAsbTz6NcFICt4k+xWHIJq8T7kIkbYIDwJSfIuHGfe35xSI1/NluOfWcF6/1DFzxxNS8X23fvZYZ9xRoJ1FoJFFIj2geVs0H0jxNISNxzRIJUE6bcjQNnduL5Bc+AzvyXL/kB3WL6QaPRurPYXLY2ggCz6v/sZ07G00Y+71YxTBUuswWAGlFYKr4AUbvxiNGvwmjjZJZ/t3EAikRx2Cj+hi0EVou3IzxuGGg3yZNrEaCJnizzN53wYm56+88pEexjAE3mN3YtQb8OGpSVlSIwIAB5ain6xJbBT2lAuL8BF64qEOojWCW7dhRN733iA/fgePqBygVAv8ShbAGgL9c1vRFekiNgJwQyc0pZS9fc+a1vVSUXVt/W1+Q1OAL2QaCf6T8YaxwNcfD1uCwdWa3RrqavcLPxHoysmAo9lAiJ7o1tyV7IypdBp+ekMNXAcsKNoQI4laXAjjMqZpkf4mNA5wgNBnQsg6/SCJHFR9IxLhED+vRCUrgWWflyFJZJERdaDhFMiAtteROmSCQCLQDM5/ykAVj57vNOQJ13wRGoGwFm3De6f2zdTxvIXTlxPTfuawAf/sg5CPjjDCqOPYLcTiOx+Jr6v7vp08rOY7ABMcYN7D6j6xlkF0mZwVh2kQxSiQmJ7bQI9KpgrmKVlfhFsxGoMILhTO54lMgfnybyzhH1T9zFGjH2n1MhN/cC9h0+hhuf6A8E6NE5Uos9qUoMTSyFQlbdyK/ZgjqxATLyy0y/iP97egEO7jvMDP+iYiLxx45fnCgF74ojALAd/5xx1luc7rwQzvHjCLgNAj20/4dpxggmz2JxFrTwr1O2MF8DukZpmVr5uk5qZjSWfEnB1M7bk1VsV0q7U56sQ4Bc7cgCn1j26HU03RPEvEfqe3r1aq+Bp7zuSTunSArC/myOgpUtLimq1fmg+LIWPembB0QTPS0A7n/hPZZFCwGy/D+0nx+3mjHi745DICrUgrnPlm7e3trflmq8DkfAoQjQbj8Km7BavAMponsq+zpyJbHy2vKCzo67R2vZWbJMYsKlAjk7ErhwRYZSrc0nYZZdtOprOjY5luGBbae9kH5VjnD/cnSL0qBPrAYqReNGFWU6EY5nCvwKvdtrWjVWloPzDQrF/FeehoeHgmU/8O+HuOGfJUD82qEIMFU/UfYufXmYQzvijXMEnIXAKOMUdq5/SDQPS8TpuN+YiCWnx+LpG+uXwF9VAdpVmlNeiQSZ+TLGHCcWmUDPSVVd367VXK+1v+sNYG52dFRCKcxXz3CRW0kFRtz7p7MUkIjBdvmtHbe6xjdp2r2g17LFK/HWK/8FGf6RPcD+5B2VroB11eN5HAFbEcjJ1yDarxnMfUNismztm9dzUwQqDOWQSN2LC91kMsJPYT1DmwxlGGh6GQNMrzDin57X+0KrV8OjiWfEgd4VoFdSuHAmTer/lGwF0wgQmxydWSe207UK9XNDX8f6xk3HJbYksuon7UCAl4FpBZpzZm8ot00GW+S2po5YbGGp2ISKNPlPfOBu9E8aBq1WxxYAk6ZNwGPz5vAFQBPw40WajkC5XtDCsXX6sxMHNL3mtZLzrz/AjfusRs19K4hgROHFcwhs38mthCzMOot7R/5ps0xkCT7JKIxpZdpFiMUmdArXMktyaxqVSsAM08zGaTV3vqG+erYQID75lpxI03GlRFpN05HYiFFeU8ZLCwia8IlrmWwraKffnHRj/3Bs2n8J/hFxzWnG7nW1JQW4Y1iU1e2KxWIcTNkFo9HIFgDLFq8AvWgBMP+Vp6xuj1fgCDSEAPv3G9I9sqEy/FkbQODGqL3QldY2qnL10PWaUnhK67cEt0a+gR1LUaYT48B5JfTNNOCTScGMBPt1KEVssA5mA7UD55Qg6/SWlrTlImaQdyRdySb9CP9yjOikZkZ5ynqM8qwZ456zKvipKjCwY1mzJ33q94a+7ZgLoLsFxCnOycB1fdpZA021srQAWPPXyso8mvwPHzhaec8vOALNQSA0QCA1s/JkrqrL25eOxZaxv1Vl8KsWjcBzfRZjRPhBvHRAhNCk/uys0ZUDoh/07NP78NmI1+0ixrq0EejZA7ihi5q1R1bkZHxGRmjNSeSD7qssZ37m1A5Zt5/LUWD/OeHIxF9lQFI7ndtFlCs3iHDmkgI5xTLIpUbm0tg1UgPSbNgrERZbT3kxTGgRIbNj2+HBSnz1whDMeH0XQuJ7QSoXjOTsJbu17Rh0GhReOo9+CV7w827ecVl0+yicyDiI9LQM3DpiHCaPn8HE+W711+jVr6e1ovHyHIFKBOTX/gm5cV8lJPxicLtj+PWW2bhv45so1Pm4FJAgzwKsv+15KCT1R9yzRsBNmQNh+ZM5PKkURWVi5nrmKTdiSILAaGVNm3WVpePd+DAde9Hz+vzZnW0kSPwFeSVSFvGO+AsCVQYkhuvQLdox5+RE1pNTJMN1ndWw8si7LljrzJNKxMwo+Z1vj+NUqmsjhvVMCMDMCR0QF2m//5uY2Gi2AJg0bjqOHvwH94+fAVoU/Oe9l/kCoM5vBM9sDAFi7muWcV9jHfDnLRMBUqv/dNNTSCmMQXZZoEsGEeWVgzjfiw7vm3brCWFaxiR3PNMD3Ww0WGtIUDrLJgNB8mm/WiJhvuq7UryglAuGgwFezTxzaKhzAGqtGMRTQOx3lNoH6QQWPOvszxrppeoxGe9dLpQyI8ihCY6b9Kt6BJ6d3A1HzuSxUL6W+c669lRI0K1jgMO6+/anr9h5/zsL3kfGhUxMvutBHDizAx4eVbEoHNY5b7hVImCzqv/XB37hxn2t8isBkPtakv8F9motQ7wjdiuAabWGEx2kB71oUibiGYoG54ggMHSsQK+YoCoNRtoVOQ5fIB92Ebw9KkBGdL6e1elrawncSEZGngxXS6TIV0tBmoxgbwPIP17sBLMDCrZDvvyEJ5H2ODP1SnTNItUZY6Rz/8kz7mOGfv0Sh0Gn06FvwlDcP30i5r38pDNE4H20MgTYxL/2rfEo0OS2sqHx4XAEqhC4MWofMqpua10FeVewyYpIe2gBQCQ0ob6ODQgTG1wOelGinfL5XDnOXJKiRCuBr6ewEPD2aHghQLEHrpRIcLVExiLYkXahR7TGLgZ0tUCqJ4MIfHKLZcxbYmRXwYainqI8uxkI0ALgUKpg+U8LgO8Wfc80AfdPn4BnX+ILgGZA22aqNpu5b8ZPo9oMWHygbQcBlYcRXSI0jE3uCNuNO2fsFKSGAtFQ0BoKXqPWCbz1FNSGPAYsEy0SiABn71klTl/yYGf3HUN1GJZUyiLdNddVzrKvxq4zrsqQWyxFmJ8eEQFV2ozG6vHntiNAC4DVG75nDZAR7Ldff48jB/+xvUFes80hwH5RbGHuy1ELnL9tDjE+4BaJwNzt8/B0j6aJ3s7fgHb+JSgsFXb/FBqWmPuclYhGONy/auecmSfD5hNeMJETPABPeQULTzsgrqxaVDtnyUf9kN3AxXwZW6zcyHf5zoSe9dW+Qwwz/Ltv7FT8c/g47h83HWQM+DoZ/vVt4hfd6VLzDl2NQJlW0GJW30q4WireP0fAjRDwUxmZ+p8CzhxKkzJVtrN2tRQrgNwCabJXKSrQO1YDX2UFs5BPvypju/zNJ72ZkSAdU9CO3xnn+MStvzvVix2FmFkN3egja3OiLP9lCRtzzQXA79vWtDks+IAbRyCvSAeEXYvO13jx2iW+Gv9X7UyewxFohQj0jNGgR3QZU6uTlbyjErn+kZHhzjMUqc7jGmWwlsUQII2D2S2ODARpIdA9WoMKowgZeUJgITrvd2QiG4S9Z1WICih3uP2DI8fRGtv+bs0iKBQClwH5/7+z4H/Qah3jqtka8WtrY7LZuC/Mu4xb9be1b0sLHu9Hw99GRh1W/U0dUrCPYPxHzHw6gwiJ7bSgvOYkoxHMvY8m+7JyCQJUBgR6G1jc+aa0G+JjAL3MiXz1t51WQV8hBvnqk4yBXhVoLo0wReDbccaLtXd9Z7XLjhfM4+TvtREwG/5VVFSgf9Jwdu5PZ/9THrwPz/zfE7Ur8Jw2iYDSQ2DRslnVz5n72uT3psUOukxvH2a3fnFlINY7Cthz4qIno7U178QbA4eM8s7lynHhCjG7iZjqnibnhHb2oSQO8zWAXuZ0qUDKzuLJ4p7Y+YK8DUgI0zWZna9EI2ZaDn2FyOnueeYx8HfrEJBIJMzyf8kX3+Hj/y7EN18tZ4uAyTMm8gWAdVC2ytKBvhaUvbYY97VKVPigQNS2H/xzP0NCrvSG07d3JhPKywQf8Pm9F2F09B67fCrz9zyOp/vapSm2g+4aqQXt2BuipKWJ/sJVOc7lCBSu5JpHvvodQwUXPvtIU38rgpEgLQQEla+mXMQWK+TnTykioJwtBOryAtiRrIJSYUSXSA1UCvcNPHS1UIunPzwAsVgCidwDIokdeYHrh7baE71GDZPRiD6dAvHo3Z2rPXPVzdSZ94NeSz7/Fu+98VHlAoAT/7jqE3GPfguKdZy5zz0+CveRQmuQs0nfN7wDPH0CIXbBjyihYTQYUFZ0FW8dno6RUXshEbnnxEPGdBT458xlD+xOUYFogMktzxzKlibYcoMYIT5C5L7mhKC1x7eEaILJXsEyAt/lAhmjFyZtAD2nxUHyJQ/GK0DEPzQed04vfHYYnn7BLo3SRy51hRfP4tDpPJzPKkGHCG+3gWzqrMnY+McWHDtyAiTnXTfdh9+2rnYb+bggzkVArWmmVT9n7nPuB+bo3v7MGIx3Dk9Du84DXB6gRyyVwiswDCr/EIxa+xW2jBWClDQHA6XUMYZOSoWJGdmlXFaArOwpUax5Cv1rDuHbHLkdUTfQu+Ka4aBwxEB++MQieKmANBMm+CsrGJ+AO0/6eoMRLy48DJ+ozpB5uta1WCQSwT8qHv6Ix4Kv92LxS0MhdiPwvl+7lH2NJtwxBcePnkTX6L6IjYvBr3/zBYAj/r9aQpvMRJmY+3hq2wjQpO8VFO7ySd/yUxCJxVD6h+JskfXxzS3boeu3Bn9YM8vm+3y1BKnZCsbwt/mkFwtna6apHdmlBMVlwnMyinP3RMcRp7MUArd+ohrkk0/eAubxEYshxTEguwZ3Sv9bfgK5BVqXT/o1MQlN6I2FPyXXzHaL+xXrvsG6zT8yWdLOpbMFwNFDx9xCNi6EcxDw9xGOHW32Tdp5Idw5kvJenIYAqffdLXn6BOB4Xke3EIsmcqKnPXxByTjpwylmfZKahfYlHn5KtNEbFF/KKGx3p6qYytwthK9HiINpnozel9wVPWTCkYpMCnSN0qJfh1LEBusYcyCFMSZ3vmKNzT8Z9UhgW3ZKZjHkKvtFwrNNitq1JDI5Tqe5NlJgbamqcjrEx+KJ+Y9CrhAmAAr5+9/XP6gqwK9aNQJenoLLL/svfnv5XqsH+/bW/lbX4RXcGwFXq0zrQocMti4UR9T1yKo8Yu6zNukNwIlMD7azp50vWfITaQ0FoKEXqfLril9PZ/n0fHiSGltOebG499b27ejyV4qFoESdwnXMfbAu10SKXkg0wqQFoBdxCVCoXcKCmAQPpXmCYhu4IlVUmCBXut/ET1iYz1FdgUtT+pw+ewoOp+5mCwCj0YilXy5D9/b9ud9/U8BrJWWYee/u41l4aFyHVjIkPgyOgG0IXCmWsoA3dNYtEZvYWX1iOx3b/drSIlnLj+yiZmFqabKks38ymHNlItY/UuO38zNY7aJHEz+94sME2wAiHKK2LuYLu8dALwOSwrXMSNCVY+R9Nw0BWgBMeeg+NvF/8NYnLOIf8QEcSN4BhYd93F+bJgkv5SwEMnNKmVW/zcv1ITFZzpKV98MRcCgCRENL4XH/yfBkZ93RgYIKv0e0tlL93RwBaJKN8C8H2Qak5QqTZHPas7VuUZkYqdke7GiiS2TzjR1pYUMakEHxasSHaZFfKsGuFC/sTlGysdoqJ6/nPASkUilmzH4AXXt0YZ2SBuCumyc6TwDek0sQYDv+ZycOsLrz+dcf4Mx9VqPGK7gKAUvmPq2eXNYULJSth8wI2qk6OpRtpwgd6EU77k0nvBDmZwBxATgjXS6U4uRFTzZOOoKwdyI/f5VCD6ISNifyEqDFFCUzf4GfUrCDMJfh7+6DwMpfv8G5lPN4/slXcPLYKWb4R3EAevTu5j5CcknshgCb+Id0j0SBJteqRj/Z3RPzOv9mVR1emCPgCgRSRXfjIq5H2glvxmBHNLY06Uolzpl4LcdMkyO9zGfsAzqWsonRsoy9rok4iAiEIgP0Vqv1mytDbHA56EWJPAfIMPDgedJ2iODrWcGIjGhB0JjX2/EMDxSUSRhHQnNl4vUbRiAuoQN++O1bnE05h7E33gMK/EOJLwAaxq0lPY0KFVxfbVb1b0hp35LGy2VtYwhQVLsr6IF14vXYIf4AaaLb0SFEh2GJpSA1d11Gec6EiIzpYoJ02H9WCeIAsHfKo2OFKwpht20nSmBbZaTJnYwECfvOERqodWLsP6fCjjMq5jHQULthfnrmSqgtdy93woZkbunPOibE4bF5cyqHQSF/dVr70EpXNsovXIoAm/iJspcnjkBLRyAfSfhdvAaLJYLPSQ0AACAASURBVJfwi3gj0kW34DbjbZhWEY6jWz9Gh5DyRneYzsQgPqwcN3RRQ+VRwSzl7TG5ZebJ8PcpL1wqkLFdfv+4MmcOqcG+yNuBaIQp0I/g9VAKigOw5aQXGz9FJaSAReZERwUUfZAMJHemqNyOS8AsZ2t8f3DOVBw9vxdzn50NOvfvkzCEWf7zBUDL/rTJuI+SQNptw1jmDDpiQy1ehSNgPwROiaYiQzQaku4j8LcxA7H4EzcZ74UEzuHCt8dIaDcc4U/GfyXYk6pEqU6CvrGl8FNZdx5ONMFbT3sx9Tq5EdbFv28Pee3dBh1D0MucyAaiX9/BIOtybXkFiFXw5EUPhPsZsD3ZiwU26tfBfRYzZrlb4zsZ/j30yDRMmzUZ/ZKGQV+uZwsAogF+5MmZ3PK/BX/obMe//KXbrR7CTYnpVtfhFTgCzUHgjGgCvhWnsh39SvFBqExZGGmchopjj+D60lswwPRKvZM+Gfe5exoUX8Z2wqSip/C6dDbeWDJ7JBBZEPnak0q9pUz6dY2N7B8OHNyNPzZtQVm5GJpyMRQyIy4VCsQj5JlwNF0wGqyrPs+zPwK0ADhydg/TAEhlUhb4hzQAFPyHp5aFAMUXocR2/F5KOQpc617cstDj0joVAc/Y+/Gj+GGUiGLhZzqFEOMRxJrWMRly0RfwSsRViRYGNGyxTufeLSFFB5XjRIYH9p1TIiqwvF6XQqMJOJbhyRYI3aI1aCnja+wz8PHxBSR6ZgRYpBGUkiKYIKyDRKDgR+584q8vK0ZRYTF8/dyTYKgx/Ot7TguAH9cvw52j7mVFKPLfqJtvQPdeXeurwvPdDIGIYMG4j/1XZeepoVBaJ+HtS8diy1hu1W8dary0LQhIlGFQww8wGeFnOgsvXECJKLqyKZE8EGXiSEhEwvlV5QOLi78yBqFvlM22rBYtOecyLqwcRBGclqsAEeXQTt6cSK2fWyxDiVbMwurScYHeIEaVwtxcsmW+KxQeUBqlCPYxkBMANDoxyivos6tSgYjdWK3xz4qXMWSFgP2uY1ta1QIgPrEjTmQcREryWYwbfS8mjnmADZQCAfEFQMv5f2MT/8x3N2Dpy8NajtRc0jaFgPrku3ii5zI25gu4hVnop4nHIMB0HO1N62HK341o360IleXXi8tnaZEYe1vLmxppwtcZRNiR7MXYBL0URnZPDHlB3hX1jrclP7hyJQd5RTpcLYmHWithBn406QeoKlCkkWBAXCmW0WrITVOfaf/DqRXPQ6PRYkj3G3D7uFsw/5WnW9UCICFJWAD8+5b7cPrEGbYAoDgA5iBAbvrRtHmxms3c1+YR5AC4BIH2WI/rTQ/jxooHoEY0DovnQZzwPIrF8S6RxxmdKqQmUBAdUm8XacQsCFBrnfQJzwD/QPTq1hWFZVJIJSaIRUZGFVyqE7NjDQqF7M6JwvT+vPEH9BvYh4n565r1GHvj3e4sss2yUcS/R59+mNU/n5qG/735EXf9sxlN51Vkus/QAOvjWf/6wC/Ok5L3xBGogUA0/sIkYyfmqmdMeQsXZBPxvfgYM/zbL3rRQiksVHymlxCTvEYzLeKWjNlOZXkgoZ0Wg+NL8fcpb1C0vNaS9BXApQIpKMQxsRrK5QqcTk2Fn9KASH89RnQqZbt+IgQi98eWkCKjI7Bk1Rf4Y4fwO3kl9ypjw9u2eWdLEL/JMtK5/8y50ysN/xYv/JZZ/tMCgCf3RYBN/F8+e5PVEqp1gpWt1RV5BY6A3REworvuVUw0dmcLgRjTn1glPsAWASvEh3EJQxDhfcXuvTq6QXLvo+A+MUHlbPIjH3ja7ZIPPIX+pUmSGPGM7qv1rheii3kyFt2Pxnc80xNGk+CvT54J2TmXoNXq0LeDBrEh5SwqolJuRGRgyzuqiYqJZGfi5gXAnKmPswXAhVOtyx2aFgBHz+3FnCdngiz/aQHQI3YA0wDU+yXgD5yOQLOZ+yasuNXpQvMOOQJNQSAUB3G3sR9ur7gZUujwp+RHrBAfRZ4FOUxT2nFlmVNZCubK1jFUx9TcNWWRSQDyZz+fq8Desy1n909xEg6e90TyZQ8UlkkYkx9FLLT05bcca06RFFn5cnSOcD69sqUczb2mBcBzrz5T2cxvX73HLP8rM1rJxcOPP4gffv2WjaaiooItAI4dOdFKRtd6hsF2/Jy5r/V8oHwkAgJ0Hh6Mf/Bv4yCmBdi3dTkzDKMdJr1OZHowa3l3w4vi25N8QV4VTK3d/hrffV1y+iqNbPffO7aM1bmY735aOOIZuHBFzuQjhj6iJ+4Zo2FyEyMfaTEaSqG+Qvhgs/9xQ2Xd/dl9U+/BsQv7KxcAZPjXNboviosadkN193HVlC+xcwLTciR1SWSPyPL/jpH/xvGjfAFQEytn3xcUC9TLgpOsDb2r5FXuRTZU51U4Ak5HgCh76UWprFyEQ2lKFGskEItMbEdJEfNclYiq9mi6Ej6eFWxStEYOD5mg/j+bLcfmE16ICtQjwYX8/ORmeDzTA2U6Cdr56RHi4/wgQdbg58yyxEhIC4Bir25Y9MKD7EhjcLfrMeau2/Cf/73iTFEc3tdPfyxnfYy/aSLOnErBhDseALf8dzjsDXag1gi/cWzH32DJeh6unLi+nic8myPgfggopdVVxUq5CcRjnxCmZYFsTlz0ZIxwZGTm7ET++jTpk4tec+hoO4aVM0rbjDw5o7p19jiKNWLsSlFh31kV9AYResaUsYBIFJCIp+oIiMRiZvnfp38v9mDtT79hx9+7qhdqJXcrf/0W0mtRscjy//03P0a5jm8cXfnxsl+5tW+NtzosryuF5n1zBKxF4K3BHyIDs2tViw7Sg16Uyg0iNmHSrpkcxshvnCL5UXAZRySinz1wXgUyXCODPXskMoijRDYCdJxBGo6Gjgua0ydRCp+5rMDFfAq3C0QGlDOvg8ZC7Tanz9ZUl879v/npK2SmX8TNw8bi4SmPseEt/OZDDLt+SKsZqkwmxdHz+6DXG9AvcQgWLfyGvaY/PAVPPPeo244zO0+DP3ZfxOWrZSgods+FiodCgm4d/XHb0CgoPRrftPj7CP+rjZes52PhzH31ANOCs/U6DWQK9+JBr9DrEK7KbTaqR64kIrCRVuRSEzMyMxuakZsZBYi5WkJn5ybEh+lAXPLNTdmFUmapTmQ89prwa8rUOUKHpHAdMq7KmPU/Be6R2/zfLrROFMEFaglOXPSAvkIMT7kR3aI0rJ+a/Tv6nmw49Br3dO1TyK2jhjZb/k8ePwOHDxxlC4CQ0GAsePf/MPS6wY6G0mntmxcAn/7vC3z1yWI2+S/9chkOJO+AXCFMSE4Tpp6OTCYTHv/fPhSp9RjROwz3jo6Fp6KZ/zj19GWv7Nx8DT5edQrJaUXoGuePpybVT6Hs5SnYATFV/9vL99pLBt5OC0ZAV1LgdtLr1IXo5J/WbLmWnB5rdRtkOd8zRouuURqE+BiQmu2B/eeUIIM1WxPVpWMFSr1jHRsgQywC2gfrGcPfnlQV85W3Ve4rxRJsP+2FI+lKyKQmxp43JKEUPp6u8SVsH+6F8rJiW4fjsHrGCgMSomzj6F/645eY/8pTTLbcnCuYNXkuSordc3HTHADJ5Y/U/5TI8v/ft0zCiX9ONqdJu9X96IdTzD124r86YOrt8W4/6dPAQwI8MW9yd7wztx9OnCvAlgOXGsWDTfy7j2c1WpAXaN0IPNz1BxTnZLjVIGn1rb56Cd2DUl0qV5ivAd2jtWx33ie2DOevKLD1lBBD/lyOnHHmNyZgvlqC3Skq5rNujkXfWB17PScrepqkif6WSHKawnZLZY5leIAs8cnLQK2T4LrOaobB4PgyeLtowjdj8sz93eDtKYGhXLBSNue7+j035TAem9DZJjHI8G/StAnM8t/DQ8HaGNT1Ovzf0wta3QKALP6J8z+hUzzOpZ7HvbdPwZiRrmU3fPajA+gc64+PnxmI0QMjbPoMXVkp2N8DS14ehkPJeXjg1R11ikKUvZRs1mEw5r7COtvmmS0QgX933IhRUXsw7o8PENi+MxQq23Yt9hg6Tfi008/POIP1t9U+l7elj57BybZUq1WHYsN0jawyFKSIeERGk1Ugh4fMCHI/I9978zk3nYNvO+2FAC8DyO2OLPBdkci2iiz96biC5DEYRRiaqK4mDxk2nr7kAZNJxFjzukZp2YLHFfI21iedZ3741ABMXbADXsFR8A527Q91cU4mSvMv4ZG7kiBtZgAhWgAcTNkFo9GI/knD8POqdex15z134LV3X2oMmhb1fM2GFTh9IhkvPPUqUk6nMvfGuPgOWLt5lVPHsWLDefTvEoxRA8Kd2q8jOqNFcZnWgGkLdmDxS3XH4BGZTCZTia7QauO+wPSnoCrk0fkc8cHZu8292d2QqwnAHbHbmtT0p8fvwcHczkgvcc2PaZxvBvqHnMCDXdY0Sd6vTo7DHbFbEaqsP0gPNZTR40yT2rO1EE3yxKV/ItMTWr2YuQlSHu2UmzkX2CpSg/V2nVGyqHcVRhEo7C3ZBEQENN+GocFOm/DwP4v/YUF6/vdE/yaUBvYez8XyDedRUuoa2f19FLjvpg7omRDQ5En/89XJmDU+qUnj+/br5fjw7c+g0wnajda4ACAgaAFAan9zWvnbt+ja3TbtibmNprz/7/sTOH62AEvqmSSb0oY7llm1KQ3RoSoM7BZSKV65vgIdgzvZvuP/ZHdPzOvMJ/5KRFvRxZxuP7Si0ThvKLTL91MamVp962lSqQu2AERakxiuA525u0Mi9rzcIik0esGb119lQKcIDZTuYV9lNUT0w2b542Z1A25eYfKM+zBi5DDcOmIck/TnH9bhpttGYciIQW4uuXXideqaxHj/v/50KTv7v2/MVEybNRmPzZtjXUNWlj6WWoB+nYOsrOX+xW8ZHIl3vjte7X9DToZLANh//sRX11k9ig0p7a2uwytwBFyFwNzt8xzeNXHmE0sdnaMPSRDOw+k8nwh19p0VePf/PuXFXAabcs5uT4HTrsgrZaCFCLkoEi8+vciL4eB5FQ6nuZdHhz3H39LbiomNZmfiPft0Z0OZef+juHFA66NNp0h//6Ttw0OPTmOT/1efLmGc/470+/f1kuHhJmpfWtL3yEspQ0a2cKZvlttIrjnmM/5SjWtUZGZh+DtHoKUjQG5/xCvfIUTHJlPL8Xh5GDEovqwy68IVGS5cEVgDg731zC7A3qyBJRoxjl8U2POkYhO6RGoQ06EcdVHfkl0CvYiAhwz5iFdgcEL1H4xK4fmFSxFY9vNi1v+kO6fh6KFj7Ew8LDwUm/b+7lK57N353Gdm4+HHHsTCD7/Clx8vRu/4wZBIJHZ3/TuTXoSbBkVC7C7qODsDSap+y5R1pQztA67t+C0fNPV6zqDWFV2qqePm5TgClgjQGX5WgRSXC2UsYh65zzWWqIyZNfBKiZS591HoXeINaG4iUqDUbDn2nRPY88L9yzG8kxrEnlfXpG/ZH7nmJbbTQmcQMfIfy2f82r0Q+Hb111AoBMv/7Es5eHne6+4loB2kkclloAVAx4Q41hq5/t196/12aLmqifwiHXxU7hfjokrC5l35eNU9NqbqX/7S7Va3flNiutV1eAWOgKsQ+Gj423bvmiZYcncr1UqYm5un3DqLfWIMFNTtJSxWAIWnJdZACrfb1IA7tPAoKJVgR7KK7dazC2XMb5+OGCiOPRH5WLOZoWOJ6zur0c5fz9oj3gKe3A8Bsvw/lLoLT7/4OFsArF7xC9v9vzL/P+4nbDMl+mXTD/jht+/YAuBsyjk2zpPHTjezVaG6RmcAucG11mQm7DGPz7z4ZxO/lw1WPTN+GmVui79zBNoUAv9keLBJkSb6kV3VdgmIQ6yBFJ6W2qPFgERsqvShp8lXU15lGUgBfYiSl9Tyu1NVoPthSaVs8UFGhP6q5qsOAr2EYEF0RED9kDEgT+6HwAMPTapcAJB0P33/M5sY1SWti/inS/dOoAUAWfpTuue2++26AHC/T9YxEkUEC6p/NvFn51n/JclRVz87cIyYvFWOgH0QePfwFLs0lH5VhivFUoT56uuNIW+Pjtr5GUA0u8QaqNZS8Bsv7E1V4p90DxbQ51KBHLHBOuZBEB/mOB5xlUKwDziW6Vlt8WGPMfI27IcALQB69O5W2eCdo+/F7h37Ku9bywW59z04Z2rlcCjkr7688eO1ygr8giHAJv6Z727gcHAEWjUCmeqwZo2Pzt9JBU8uerQjJ3Ibp6eqTb9Tu6ZFCB0d/JPhyXb/dLTAk/shsPyXJczynxYAl7Oy8dB9czBq0G3uJ2gzJSL3vsOpu9kCgM79e3UcxCz/+QKgcWCbzdz31fi/ABs1ivTjOX35BGQV+tUp6fvj16BreHadz9pK5vmrgZi54h423I2PftZWhu124yzVibAn1QtyKQXUsV4zZu2Ayg0UGMgTeWopY88ja/sbutTsV1h0EGvg9mQVyg1ixhpIAXN8lY7jzh/YUfBMIK0D0fkSC2C4vxDf29px8vKOQ4AWAOfPXsCLT72CY0dOMJV4u4gwbNzTenhXKKgPLQAefvxB9Esaxlz/aAFAboDkDUCGgY5KZBdwPss+0TStkVEsEiExxtcuHgjs4C40wHq1fZh3GWADZW9mgR8W/PGveid9AqJIU7c/MRkymalQrQGspZUtKPPEwyv/3dLEdmt5n+m1FCZMs0pG8rXfe1bFws0SDa8jE4UEpqh3FP2OTASTwrWNHiXQOfywxFIUlkmYFT6F+I0KKEeIr8Eu5/z1jbdHjBY7z6hwKssTPp6lIHdFntwLgQ4d2+O7NYvYpEg+8KQBWPDcG3jpzefdS9BmSkMLgOW/LMYLT77KOP/J9e/vv7bh5432JyHT6Suw+59cfPP72WZKbXt1qUSEXomBmPPvTrY3Yvbj//LZm6ym7FXrZLB2uVBukGDasolMYJnEgG8mL0ewV5W/8MGMSGxKTqw1oBnL70V6fgC8PbRY86Dgx1qrUAvP0JRL8fqfo7E/nRMjOeKjjPLOQVNDEOn0Iuw448UM7G7orHbYYpNC5qZkk0uWCEHeBhbi9hqxVpMhoIUwGfORcR8lcufLLZbiUJoSMokRwT4GRsVrjWV/Uzofmij0d+C8J3R6MXMDJJdBntwHAfJ7J5X4ks+/xcfvfY5Vy9ew175T26DysvbX233GVVOSrj26MG7/40dPYMIdDyD1jGD5v+r3ZejcrWm0yDXbrHmffKEQb397At4hUQjvMrDmY6fep5drWRCez+YNAsWssCZFXfPrZ2f8G/adt6YuKzthhfWsUS/8WlVn/ewvq0361Gjf6IuYP3ozhsRVD8Oq1rVQLlErUN11vsO1Sd+EUUnJmDdqkxW1edHGEGgKcx8R2BDD3sE0JTvTJrc2e2qY6NjAzOBHboBV7HkloAh61k76dY2ZVP1k7Gd254sO1GN/DdbAuurZmtevg4ZxEuQWy0CshNeIwWxtjtdzAAJTZ01mC4Ann3uUtT6g8wim/i9VV226HNCt05vs1rMrs3FYsW4p6/vuWyexcZ463vwAXW99cxztOg+AV5Drg/hI5R5s8TH77T0sToUtQLPlwmc/H0H/7nVH8bGl0frqnLzcPAOr+tqtmV9eIYZWL4NKXs52bTWf13dPKnZ/pfUx0ukIorRcDqW83CqfaUs52vkWY+W0pQhUCeeom5ITLB/zawcjQGflKoWRGe3Ru73S2Rw5LlxRgNjzaPfdr0NZo0Q69uqb2iE1/MAarIFkpEhaBmIN7BKpBUXua04iV0Rqp5MRLFwxTf4jOqntspBpjly8bnUEpj08BVMemlSp/qcFwN2TxuOp5+e2Kg2AeQFwx8h/43xqGmgBEJ8YZ7P6f+22dBaxtDqarr9T+ofg8zVnqnHxNyYVGfdF+zUjLC9NqtYmb4UO+WVNV03Q5PdPVgRKtALBgqZchvc2X1/Z7VMj/668pouVB3vhyMVIHM6MYvlikRGT+h/E/f0PVitneUOGhttSO+KjrcNRWq5AtH8+RiamYGK/w5V9JYTk4vZuJy2rVV6vPtIdi/YMhL5CCupvQt/DGNP9uNULiC7t3M+YsaTcNeQt3vIqettKoB10UaYT4cxlCkUL5kdvjx0+tUUTPu2CNeViRPiXu02QHmINJHpg8sunY4ZtyV7oFK5li5LmahyIHGRQfCmSL3lgT4oKwzs5d0dJZ7AGg/0WbU39yqk8HWdI1lQZmlqO1P8//r4MLz79Ko4fPYlVy1Zj17Y92LDL+ngtTe3TVeVonJ++/wUWL/yWqf8//u9CzJo7w2rDvwuX1ZArnbNptQYrudIHZQW51lSpLMtm4dH9YyszmnqxcuJ6q437HhmxAwv+uIl18fhPd+KDu35usLsTl9rhz1NVRgwGo6TaveXEP+rj2nHbjSYxvt3XHysO9MH6OV/U6uvoxXA88/PYavkZBQFYsncgVhzqw7QG9JCOGmpO/PTjPvqT6n1Sf8sP9GWvqYP2YmLfw9Xabgk3/z0yGevTh0MilUHh7e98kU0maEvyYayowPi4jbBXpEBi7suoYdy3O0XJNDRJEVoWVa85gyUXtxOZHtAZxFBIBc1Bx9Byux4VNEc+y7oeMhOINZBelIglkFgD89VSUKS+EB8DCyxkWaep10Rq1Ku9BoYKMBbC9sHloJejwhKfTqOz1+OQK70hkSkgMlOTNVVgO5TTa0qh15YiNMADbz/azw4tOraJuIQOWLHuG5xLOY8xN96NrMxLTCW+eOXn6D+4r2M7d2LrCg8FnnxuLuY8MZNpOb74aBHoNXPudFAwoKamnHwtRCHsVLypVZxSTiKz/QicTfxzxvW22rhv54Vw/Ktub7x6Bz2s43m08ynC5WJfnLzcDjRZv/CvvzA8/mydKvLHb9gGet27eDLySr0aNO6LDbyKLyeuqtX37QsfhNYgQ1peAGIDq+K1kzrSPOnTLn/RpJXV6t628MFq95Y3KbnBmPujECLz7bHr0DvqYuXjnedi8er6m7Fkz0BM6HPYLX/4K4W1uNAbJXh8xzxkSoYivEu0xRNXXArc3H9cCkHOvkAsGGA/d0ZasF0qkOH0JQ8MTVDDw0qaXTMaFIkv+bICRKRDqX2QrtLAzlympbxTdD56UaIJm+IHkA0C/Y8Qfz+5CVpLR0zHB8RCeDFPhh3JXghkxov25T44lpqPj34653JjK/PnTJP/9Nd2YtH/DTVnufU7LQBOZBysXABMu3cWk3fJD1+g36A+bi27NcLRAuDYhf14742P8M2Xy9jkT6F/Z8x5AF1GjKnW1CfvfY4xd92GqJjIavmt5aaacZ8tg3p7a39bquGju1ejZ2TVRPmfDaMx8/t7mKrVpgavVfrknp/qrH5L11Ms/3hWu2rPD2cIxwFeCi3eHvtrtWd088yNW2rlmTO+3jUQFUbhYNRy0qfnQ+PS8K9OAo/0P1muNwQxy9zY+y/nb8Dpgg7wCXX1pF8lqW+7WOy83LsqoxlXR64I3iIHzyvZpN8jusymSZ9c/MjtbnuyF5v0iT1vQMdSdHQge14zhm11VZqwibCHzuhp529mDaSwvrakyEA9U//nFMmQmSdr9v+5WYYyrQGL1qUiIKZKI2h+5qp3mYcKJohgcHbM5WYOmBYAj89/pLKVqffMRFmZ9bZOlQ246QXZMpijGxLxD+3+L54/V03azz/8Gk/Pfg4m2iG04sT0F2Pmr3baEP08tXj3znVYNX0JpGLB/edCfiBTmy/cMQT6CttUKnJJ3Wd7t3YRzuZPXKqahKmPl36/mY152QPfIcjCpdAMxIj46l8Icz69H7koLBpevuUPy+zK6ydu2MquF+9xrdtHpUBNuFh44h63mvRJZJFIxKxoj12Nb8IIGi6yOvcJxjrXKULLLN6tcT3LLpIywhrirCc3uQ7BOlzXmTj1SxAXWg7vVujHTqr57tFaRh5E4/RSVDDDPSE+gBIU9repSfBeKIG+QsQs/89cFqLKNbV+XeXe/e44SjQVkMqb31Zd7duaF5LQGx+uEDYbtrbhinozZj+Ao+f3MlIc6r9/0jC8/uLbrW4B0L2XYPkfGxfDYH7nmSfwxJQHcfqEYPkfHBKEk8dPg6iAW2PKyRcWdE23tKuBwpCYrBo51t2S9fwfc75AdrE3lu7tj81nErHmaA/2+n3256hvIm+ol99OdMbxrHDsOBsHUl1bJq2haqhbziQwYzx6rpLbzvP8ybZhoFd96WxucH2P3DJfFVhdK+IOQir9Q7Hzci90D0q1SZxjotk4KHoBfiHJbKJuSiNm9rz8UgnboSa207FAPDQRttVECyVa7FCizVDyJQU7EiDWwOhAIg3SN2on0SGkHPTKLpSyRVigl4HZA9iCadoltVu4VtWUXSyR4nhyQc3sFnEvlUoZDe7UmfezM/GV3/4Iek2YcjdeeO3ZFjGGpgr569/CZveGQWOQfu48/n3LJCR0iscfO39B34ShzPCxqW21pHLlemGD3PRle43Rzb/+QI0c227DfEqY7364b1FlA8v2WW8gQ1b5H/59HbakJNSa9CsbvnZRorN9l2CpASK7g/pe1BUtPshroKUk2mG7Y9JV2KZmzkE/HBS/iJuNdyHg6keNDo3Y88jQjc6kiQ7XXykw41GoWjKI40lAgL4mnSJ0jDUwMqAcGXlyHDyvYosBy/+P+vAirwKqRxjbeoRAbYvE1Rf39fXH861DgBYAP65fVllpxTercGDvocr71nQx778fgkIcU0o5nQo6+zen1jpmGh/bBq99a7zVxn1mcOz1Tix+N306k52dk0X9tMFNjyw1/5fbcSgzCmE+xbi3z2Hceu1cn2S7olZh4pLqkdk0etvdbyznxi8nVjcIrAsLsYhPGHXh4si8s6K7sF38ESJMWzCtQjjimdYJyMA7tbol9jw6fy7SSBh7XoiPnhml1SrIM2ohQP8LSeE69qKHRIBEYYLJhZFY/fnifQAAIABJREFUA8m3P8i7bjY/cz3Cn3gFyK6AyvPkHgh0TIhjhn+pZ87izlH3YurdM5lgS1Z9gX4DW4/hn0wux0/bNyI6RIH+ScNBZ/zmRGMm48fWlMjzhFKV/tvK0d2+dCy2jLVv0IfxPY9h1eFeVknyzd5+bNKnSt9NqVqlmhvJKfY2X1a+dwy6WnndnAu1ToFu4Zeb0wSva0cEDPDAMnEykkzfVU745ubXpY1Azx4AseeRf/25HAUjd+ocoUXv2DKHuZuZ+28L7+QBMCShynf/fK6chRCmsYf66kFY13TrM7sVXi2RMPX/wI5V9S0xu1woZYsDyzx+7XgE4hM7ssnvnlvvZ2ffNBlGRkfgtf++1CoWALs2bsDvy7+Fn78PevfriUP7j1Qz7DtxrOXZazT0rZBfI+tgOo6Jr7oHeUPxNaKe+gQ31qE2v1zsU19xln/0YkSt50lhOZV5V9V1c1Y3RWW581yHynb4hWsRyJUMxc/iv+GP0xho+r9awmzKHAiaiCjSHk36Yb56Fu+eot/VnIxqVeYZNiFA5/mD49WgAEekVdl22osZSZLLYM1EmgFyiSRKY7Pq1bLMmUsCyZJlHr92HgLL1y7B3GcE3/eLGVmYds8saDQtX0Pz2/ffQV1SAhrTwX2Hq036hO7nH1RpAJyHtuN6Ml7j1GYTf6nGdgM3a0Qkv/2UnLoN3ugs3EzWo5JXj4QWcI3Glpj1aiZiA6wvUZvf7BtQ6zEZFj41UnDXm7BkCrakdKxVZuwXM2rlmTN6R2WySzJGrC+OwL4LgtWouQ5/dwwCRkgg7vIuLsrG4FbjGIwxCt4adMByBT3wo3gPFksuocuQB+HrWcEM/MhKvWtU7d2nYyRs260qFSZG4EOYU3jhhHY6HE33ZLv7zSfJJbJK6UgukVSmZ49+uGXUSGj1IuQUCYaAQxLV2JWiAvEn8OR8BOjc/6FHpzPLf6lMyibIfolD8ebL77boBcBrXy7Bg0/OxdxnZ+OuiXdi8PCBIIv/oJBABvLWTdtxYM3nzgfcQT1mXRFYUav+66zs6NcHfrGauY+6mLOqKtwsReirMIpBjHeWac1DiyxvMX3QXsxfewfLu+PzGYgPuQKymF8762vMGraLqfozC/wZIVCgSo2ekVkgy33yqV1w63q89Pst1dqjm5s6J+PT7cMYO9+bG0bj3Y0j0b99Og5lREFnkIHaKdPXbVRGfv/rT3bC+1uux51fzoCPhwZJobmMq39PWntWn/rY+Kj9iGdqDaCNZ+jgg+XiUxDDAOOJeejdfiM8lIXYLfoPksVToTJlIca0HncZB0MEEzZdGoDA3t+2cdRcP3wykuzbocpHPCtfxhj+6H+VWAO7Rmpx+Mg+5BXp4Cm/jmlj+sSWYttpb3jKjdhxRoURTqYCdj1q7iMBLQCOntsLg8GAvolDsXzJD+x139R78Nyrz7iPoE2URCqToc+/pkNb4YGG9LdbkqvI35rYtFsXYzMuGfc5I5HvflJoNuO0p/6I39486Qd7lWDZlG/ZZFkzhGif6Iv47eEv2A+4Ri/HsawImN3zJGITFk9agQHtL7AhkJU9uQZ2aXcZn97zIzqGXKl3aL/O+gqjk5IZnwDRAe8+3wEmkwh3dDuOldOqJgk/z6ofKnNjt3Q5zeRVSPUo1npif3oMtqbGs0k/SKXGyqlV1qHmOvy9+QgUIRZ/ilditXgnJhtjcaNxKsSdXsfv3iewRrwVCaYV7Hz/HmM/DDS9zL4z1OuNUU03Fm2+lLyFpiIQESAYU5JGoEe0hnkGDOg/FDffeAMCVEQgJMGRC0pIxUZoykXMLkNncE/vk6aOuTWUMy8AiPqWNAC0AOgW069F7v4DPfOZNpA+F9okgL1aw6dUewxm5j6bd/wzfhqFFTdaZ9xHKvaP716DcoMEO8/HgnbpAcoyBKlKMTD2QoP0tgppBVZM+4YF1An2UqNbxKVqo3r99vXYfCYeV9VeCFSV4saklMrnDe28nxm1BXNG7MBfp5NgMIpBhD+eckNlXbqo7zgh1EeNNQ8uBgUTKtR4QinXY0D7dIT6FNdJQVyt0UZuSH7LMTRSvE08roAcv4g3g95HGOdgpfgYykW+gPYShukmId6DT+4t+YtArIE9YrRY+PNZeHkHQCQKZXEPiPinwiRivw86vRhpuXVr4lry2Fuq7MR7f/3oERg3+l6m/qf31997GX36W2ek7crxk7ZJXwGE+uiRU2zp8UWLgNa5yGQTPzH3LX25fiKauj6UnHqM4uoqWzNPLq3ADQlna2Y3ek8ha8f1PFZvuZGJtpG80IQ9tsfxetsd3an+eM40llu6ChS99TbAHzQLAZHUC3+LFuKC6FaYRFLGIFMqisAko0DX+lXKOPjENvzZz90+D0/3aJYYvLKTEMgvyEPqhUsY2NWP/exS4CMi/aEfaNqNXcznE7+TPoomdZOQJFj+33XzfUg+eQZT7noQ0e2jsH57w0HYmtS4EwoRg2x8mA7/ZHhCIjKxRSa5o9rKIusEkW3ugqiuKdm847e55xZScfYPd1VKGulfRS5UmckvnIaAT4+XkGbZm0iEg6IXcRAvslxJd+B3y+d1XPe8Hth0oo4HPMvtECBVP6X0Or1uhR1Y3+6dcSa7xO1kJ4FO//oh+i6fz/jvJ02b4JYyOkKon/5YjjOnUvDCU6+yBUDX6L5uvwAwQYqM4khcLDExD5TdqeT+bWL00oLKv3Xt+Ml2BmHNmPi/Gv8XUIdbjiO+UI5qc09aDAbFptdqPr/UE6m5ISyfDPd4ci0C6pSvMDGu7iBMJNnP52/AiPBDCPCof4H27uEHcP+9goGoa0fDe28MgUVrU1Ck1uO2G3qhsExQvdLZK0VSJHKgIG8DDh47Be8QIWZGY+05+3lprmBv9NYr72H4DUPZ5OdsGVzVX2LnBBbyt1/SUBj0BmRcyAThMP+Vp1wlUr39ksu2ySMWHlIN+nSowIlMJSIDdNc0SuYJv3Wq+9mO3xbmvjDvMpus+uv9FFzw4KXfbm2w16dHbsG/Otev5m+wMn9oNwQqSlIRhPqPYqCJh6/xFIJQv+Xt272fQobnbXaTiTfkOATKykpRXKJDzxgtpBItynQi7E71Yj/KRJ9c0/jXcZLY1nLf6e8j47c3kJtzBbcMv5Odd9O5d2sN9VoTJZlMsPxf+MFX+OLjRVi2eAWWL1kJ0n7Me/nJmsWdfk88EsQpwaZ07VkEeqtwND0U4f56pGYLzHbxoVpkF8mYSynZmLSWpPQQaK6r+9FZMTpi7mvp6Y07fkW0fz4k16IE0njigq5iTPdj+OuRz/ik39I/YAv5y/S1OSAsHreYy61bj2H6jA9rvX7/3frYGdROzWRuu5wiFbk45akFH/6TWZ6MfyEmyP0nfTNkWw78wRjvQkKDGRvczcPGsrNv8/O28P7w4w8y17/ZTzzEDP++W/Q9s/zXal1D/EO8EP+kCyG1r+9C0TXVgEiCLHU7xAQJMScocFT/uFIQo2Sv9mXwVRrhKnkd8R0J9BUWNmzi37DvvCP6cPs2+8VkYtGklfj94S+x5P7lWP3gInw+YRUeGbGzQQ8Dtx8YF7AWAvP3PF4rryVndEqKQu9ecfD1VbJhrPl5d7OHc+6cQD8dHOwLudz15j9ZBTJ0jdSgb6xAOtLsAbqggbWbf6zslehgye3N2MZYiGjipyMAShTnfvy/JuLIwX8qcXHGBan196SqcKVEhkHxpZVaI5MiGuTOR7EiyGOEFptEPU1xKOhfoGeMBrv373WGiE7tg/13f/bzEfTvbp1Vv1OldHBnxAUQ6Vf/+bCDu+fNcwSsRuDuu4chOrqKBZN26qdOZ6Bzp2ir26IKWm053nhzFZ5/7m7ExblHeObe7Vu+fY23jxfb+ZcUqzGo63WM6Y7Y7oaPmwyMT7Lps2qJlVb/+T0Te9y/JrAoePePm46Y2Gj8vm2Nw4dz5rICmXkyXNdJDXIZpVRUJsaRdCVE5RchVSmw5aQXSL1fl/ceKfrpWKA1pMycUkT7ATar+hlzX2tAgo+hTSCglNZWL9Jk98STX1aqzdPTc3HyZAbmP1dFvnThQg67p/xPPv2NlTUDRju3/7zxA2Y8KKjen3v+G/y+vrrK/a+/Dldrz1z3lVeXY9WPO8y3+PrrDfjwo7Xs/v0PfmH9PDr3c6z8YXtlmcYuoiKDkZNbyPr7YVXtejXHZm7vp9W7MOeRhbjnnuF1TvqXLuVh5qxPmEwPzfwYFy9WmdsTVtb0Ze6zrb2bFwBj7hLsTLav+RZEeUsagLaU1mxYAbL+T+gUj/S0DJDl/9FD9btoNwcbUutvOuHNuCBIrW+e9CkcNJFC9YopA4xlyCkLQZcoLVJzPEDHSTVTfLQPKvT1U8PXLO+s+/Iy271a2MQ/un+ss2Tl/XAEXILAW4Nrn2e/9vpKFBcLu0qJRMx2vMlnMnHlSpX2R683sPuyMi2OHDlXTfYPPlyL8+ezQWpEhUKG3NxCrFmzG4WF6spyarW2WnvmB1evFqPkWt+UV1hYivx8NU6cSGcvaq+sTIeNG4+wd3O9ut7z84UfAG9vT4SG+EGpVGDHjpO1iu7YeRI6Xe0ftj/+EEKPjrqxZ606lPHKq9/DYKiAl5cHKiqExY65oLkvwsky1deXZZm2eP2f/72Cz5YK30UKckO7/8z0i20KiqQuifjht+8gvTYT0+7/3dfetysGGXkyptanM/v2wdW/8/+ke7KInHR+D6k/vGRqqORGBHlXL2cWqFucP8oKqxa75nxXv2uKrsJTcU2FYaUwTNU/Z1xvFGhyraq680I4/uVnVRVemCPgNgjs35+C7OwCLPr6sUqZsrLysOC1FZX3lheff/FHtbKHDp9l2oGvv5oLER0IXksrVm7DU08vqlbW/Kyxd9pJ//zL7sq6NJmSRmHuY1+A+rFMry4QVKeUR4uWzxfOqXz8zNPj8Mij1QOL7Nx5EgcOpODNN6ZUlqML0njEtg/FM8+MrzYOekbnsQsWrAAtKN77b1XQKjpW+GvjEYwe1QvmvhYt3ohZM4UASVS3rr6qddyGb4bfMASPvL8Mq956gln+k+Ff3wG9sfTHL9sMKszy//w+fPLe5/j8w6/xzVfL8d2iFdifvB0eHoIBmi1gpFxT6xMVNNFAWyYK7XzyogcGx5eCgkfRWtUkDYRCWoh95wJrlTfX7dMpCB+vOg2voPBa/yPmMs5+N+i0kKEcb8zpY1XXZspetuN/e7n1xgtvb+1vVYe8MEfAlQgQc59lWrJ0I/r1EwyOzPkREYGY+sCN5ttq77fc0rfynibkL7/8E4MGJtX6IZhw7whWjiZNa5NK5YEXX7i3shr9OD7z9Hg2AVdmXruYPm00O4+fPn00+vdLwKyHP0V6hrB49/QUPBj27z9TWW3J0k3sOiSk+mq9Z884pF3IAS1YaqZff9uPjMwrmD/v30zrQBoIevXp0xEbNhxixc190URvTmYNRM2+zM/5u4CApeU/hYQltTfFu29L6ZGnZuHI2T2Y9dgMZvTYN2Eourfvb7UlPVnsk1pfLjWCLPaTwqur5tOvypB2RY5hicKkT/fbkr0h1p5FniaQGZE2hPui/xuKy6f2ITv5AEjFbqwwuOSlKc5HfsYZFGUcx8L5g+HvbZu3Etvx7z6ehYfGNRSbqCFI+LPWgoDJaIRIbLPZh8Ng8JRW/ye2R0fkrhYfH16rqfqs2WlXbE6k0ifVd2xsVZ75mfm9tEwHL5V1O5egIJ9aCwlSpdeVIiODmHEfGeINHiRQF9Pu3KzBoPP6rxf9hS5dYpjqn9oYNao2f/qUySNx8mQ6Oxogw8D+/asWQ5mZQoCrF//vu1oimNW09ID6+uGH7Sgt1bK+yEahrr5qNdLMDPrxbQ2JFgDbNu/EnKmP48DeQ2wB8OfOtYiMjmgNw2t0DDK5DLQAmPnodBbxr6KiArQAeGDm/Xj0qVlQeNT9P0ANF2vE2H9OxSb8mjt8c8dns+XIL5VicLzgHUI7/fO5CgyKV2NPcjjCVDkI8xO8Y8x1ar5LxCJGa08L+p+3ZuDy1ZyaRRx+T/wVSd390DMx3uYJ32zcZ7PPzpCYLIcPlHfgXAQMOg1knirndtpIbxXlWoT6OuZ8rbyO8+56/dct1PnmXS5NdPUlpWfDfPJ0Vl4zmYy1tQQN9WFZn7QVlom0ETQZHz58DtExgvX/8OFdLYtUXs999A5m37Bo8V/VJn4PD2EMdIxgeZxRWfHaBfX10087K/u6dCkfDz/cMDlWzTasvZdIRDDo3NPNz8vT+p/VESOH4o7xt2LdaoF8+s5R9+CpFx7DvZOrwphbi1FLK08LgJW/foMXnnwFKclnsfSL77Bt03b8+vfqOodCRDwHzikR4V+OjmF1bw5I8XbhqgLXdapS+xMvRKdwLVQKEyDxhlxSZdNTZ0cWmfR/MO76GIuclnnJtnfPThxgtfTzr69uvWx1A7yCWyEQ4pmHvPTaBmGuFrIgMxl3dvi72WJ8NPztam1ERQVh3a/Vo/nRpE8W7o2lgABvpu6uWZ/qZWUJixTxNc1JaGh11TqV2bX7FOpaYJBaPSWl+oKadu3iJlDVbd7yTzXfezqXp/TNt5vwwQe/YNq0UQhvF8Dyav4h7cFnn85mWoznnluKkhLB4HH4sC6s6Nq1DR8FUl+PPzamsi+qVF9fNfu29X7KrR2hUzf9B9vWfqytV3g5DdPHVGlNrKn/xvuvMtc/WgCQ4d/rL76NfknD6jzqsabdllS2U9ckrPlrJVb9voyJnXYunWlAjh2pCrRhVutvT/Ziav1OETrI6rBxO5Hpgc0nvXFD55JKi35y46P6YX4GkLpfVO78nbs7fB5s4h/SPdJqWT7ZXbcFsNUN8QpugcCK0fMwNHQ/Ci42HOXOmcLmpSdjXOwGh3T5wvP3sMn35VeWYcvfx/D31mN4ePaniOsQ1qT+Zj98K7PmJ8M7suQni/8nn/oKL728HHNmV+12hwzpzNojH/ldu05h/foD2LTpaLVJ2tyhl5cnyFOAztb37k1m7nPHj1+oZlhnLku78zffXIW5cz9n5QoK1Pjg/YfMj9n7nXcOYjKS58KQwYIc1QrUuKGdfe6VIjz+xJcwGk2Ij49gdgQkz5IlG3EmJQuH2Ti/rlET6Nw5urKv66/rVuu5vTOG9wrDgpm9kH1G8Eiwd/u2tKctKYBYk4deidW1L9a2RQuAXce2MA2ApkzD2O76dxrephYAnbslsUWQeQEwccwDbAGw9ZgI+88pmSHeDV3UlUQ8NTE+mu7JfPJHdimB+fSS8g6cV2FgxzJm5Ef0vKKKwppVW/V9NeM+W0a6IaW9LdV4HTdFgDTZ83svhqYoD2UFucxwxVWiGg16lOZlQ6cuxMyuVcxnzZFnXZpgdGdugwznwsMDcfFiHpYv/xvLlv2Nu+4agv4DEs1FGn2n8qSKJ9998vEvKioDTd69e3esVtff3wvEird4yUasXrMbs2bdwizxqxUC4OenwsyHbsYvv+zBV18LC56QYF/4+NQ+fyQPgLPnLoNsCSiR8SG5AFqmoUM6W8VASZiQDJR+vsYESDYEnp5y7Nx1Cu+88xM+ZeMsteym8tp8GjJ8uOMnfuo0OswLMpEJBVnV3SwrBXLSBZ37FmSmMqOrJ++r+zjFWlF8/XxACwCi/KVUVlqG6RMetraZFl+eFgAPPjINcg8lxsyYh3Io0SeqoMFx0Sna1RIpukRoq33/KY+OBSiRhX+wT93uew023koessOoMfNXM8OFVjImPgwbEfCQlmPL2Bn4M30I9mR3x9ki21jgbOy+slrngPMYFPkPRg7cX5nX3ItNmQNRU0f12oJJtZpdvXpXtR8L2vWaDeZqFr75pr6gV2Ppv+9Or1Xkk4/r/hHv0SO23v6okeuu685etRqsI0Or1bNd+OT7b6jjKersx9Jtz1ypPlnNz83vdJ5KfVkyCpqfOer9i+cH48JlNZb9cQqlGj0Mhtp2Eo7q29xuoK8Cj9wXh4iQxrUq5jpNfWeGf5t24JX5/8H+3QfZrrf/4L5YvLK6u2ZT22uJ5a6/90l0u/VZXDq9DU/eJhiyTnt4MuY8MbOW4R9pA4o1klqueTvPqJgxH53rXyqQIja4HHGh5djSxjT9zTbumzPoSEv8DnGZm4DATTG7QK/WnMglj3a4lol809f/cRBmlzzLZy3x2sxJMGKE43fgxcWCoZ0z+qr5WbRv54UXp/Womd1q7kfcOAx/H/wT2zbtwJxpT1QuADbsWoeIqNqeKa1l4OZJnOI1dI/WAl364O7bdzO7h8ULvwW9aAHw5HMCx8XuFAqrq0f/uOpGn3SWT0Q+zJgPwKlrQZ9aC062jMNm362bEmvHsbdFAF6HI+AMBO6I3VqtG2LOIzpds7/95cv5zAqeCg27ZtRWrUILuiEqYjrzJ5Y+s2W+o8Q397Vw4e8O78tRY2gp7dIC4PZxt1SKe+foeyu/v5WZreSCiHjIVY9U82SIZ05yhRzL1y4x37LJ//jRE9CUi1BWLmZR9SofXrs4m6NAQjvhSKxUJ4K/qqq9mmXbyj3b8qx9a7zVzH1tBSA+ztaBwI1R+5BhMRQ6d9+67Th+WFXFlz9u3GDccH33WmflFtVaxOWbb/3I+PQfmXMbevWKc6jM5r4Iz08/qfv4wqECtLHG3/xgAej13OMv4dc165nhn1KlxL5T2xp0uWwpMB37f/auAzyqYvv/sr2l90IgCS1UQYoUQYpiwwK2p3996nv2+mzYFTvWZ30qdsWnqE8RCyigSEekJySQRnqvm91sS/7fmc1Ndjfb7maT3YQ73xfuvXNnzpw5u+yZOXPO7xQrUN0sxfB4gzVtrhPGx00Ywxz/Dh/MxmXnXoVjzcNRliVDcghFn3T7WNDR04FiBTvrF4vo3F+M/cetjoFOyJ4QVZxzH1P8lXVayHv6D7kVxOKPLsCmC35w20Z4KUggWCTwwt6/41IbazDthJ952h6+NpC83nPPEr8Nv/zxK/xGyxOh/hzLEy8n0ntS/vc/fg9mTZjPHP/GD52KR599ABdfvmRALgBa9CLsylczBD1m1vfiw6QFwBvrcvDVaw9g80/fsh4ZI9Lx9MuPYdzEsdiUrWEY/JzFgJT+6ETX2BteDMma/LKzDGU19scJ3vbtbbsxaRGYMCISSrn9MSVfuqz3DS+sF5z7+EpuALXvRpIfQEz7mdUSrXdhen4eViDnowS4Ixgfu58Q3cjz/40PXmaOf7XVdXjigWfx648bsfLztwbU/Lvw9R3M+p4m0dAqZulyX3n1Xrw1LBzvvfUR8o8V4IoLrsX2rK0s1G98qhWTgmL3NQoLCMPf15J7vAlf/FqAwrLuJFy+0vK13+a9lSDwqn/fNR2hKvsoHm9o6tqsxxy9WzZ4M5LQJuASSFJX43C9fYhZwJnyIwM6swIyse//of3IikDKDxIIVUtxrKTZD5SCk0ST1giNDz/azmZz2sI5+H3PHPy+4Q/ceu1d2LF1N/P8/2X7WiSlJDrrEjR1BlMItuRqkBFvYEA8XuBUdfG+MUsDiagD88aQEpbhzvtvxc3/up45/hHk746CKGT9+Bxm3Xkde09e/ZSa19fy2c95+OOwFhFJw5E0lh8Ut69juut358t78ODVY5GREuauWY93dU0GIAFgzn3xUfxhWtde/V0PokJFcEpgSGgVfimZEZzM+YErCtWLlHdDcjojee+kj5xVC3VBKIEZ462x60HIml9Y2rq/CpNH9w7kx5ERWgAcLt7DLAD07oyZi9kCoKKs0rFpwJ/JrE8e+7vyrOftFFrHR+lvOKzBjBGtmJtpjydBjn978nbhP79kY8WN52Dlmx9i8oiZ+PjzLUiPs8bv+zJ5s6Udm/6qRkzaWEjkgVf6NIf40VPw5PsH8OWvhb5Myar4373vTN6dtQb+Zgbegwgd/CaBGr1zuFa/DRBAQq1mzw4qtPgRysCQwNQxsRg1NBxa/eCz4tQ0tOHrjUWgs9q+KNwCICbOurA4fca5uO6KWxAsCwDaeR8uVWBkQhvmOChub+RBGfhYhj2Zc7yGzUdCER1qwa9bv2ChfmKxGMkTzsaF0yfBZPTt+/T5+gLEpPd9SKw387dtExqbgp+3l9pWebznnPt8Duf723+7YUk9jiY0CLgEUjUV0Jqs+O0BZ8aPDNS1hWNiTHf6WVekdSbXGb5c9RHqAyeBuZMTsOnPisAx0Ecjb/yznJ1L9xH5LrJrNqzGuReexZ53bNmFC06/NKChf2TWJ499ozkE0zN0iFD3TFLVxbyLm/wqGUIVFsilzpU+4fCr5RaM6gzdo/j+D/+3Cjl7t4LM/xef/X/IOnjEBXXX1RW1OkhkwbHTt+WyNwnVmOIn5D6hDG4JfLDgUSz9+WXkNQ0ZNBPdVzMKF697Ea/MfsHjnO7fcafHNkKD4JHAzAlx+N9vxwOqrPwtDcp/sG5HGZZd1fe7x/CIcDz36pPYdnAjm0artpWF/n3z3/4/ouXM+nFhZjB8fZ7bTQrLo51+o06M6cOde9NTG8LhnzFCBwrdo1LdLEG9dBJuvWoi0oYPQ97RfFx67pW4YOGl1gZe/tuk9c1S4CV5n5uFiJxkJvJAraHZimfA8yPopqqW+X5m0k1FuOsvCYhCOnDHxFW4/rfH0GL0bBrvL758HadGH4F7t92Np6a/4SsJoV+QS+CtZTNwzRNbQZ7Mg6Fc++RWvPfwLGT2kZnfmYxoAUBn/9wC4LFlT2H6mLn43xdrnDX3ax2Z9Ulhj0wwMLM+F1bHZxDKVM1l2Ds5zeqh79ifgH4odG/eGHs/n4PF1vS71H7tpq/x+ZqPuhYA41KngFIfO5az51zI8BEc6wfLs1Zv9er3WfF/cflPg0UWJ8w8zh66FVeOWoubNz804Od86x8P4vaJqzAz8YBXc1FJeh+/69VAQiO/SUClkCA2QoEP1x5DO23pBmixtHce1qoYAAAgAElEQVTgs5/zkRyrgoTbjvbzXGgB8Pr7L7FRaff/6H1PoqK87xZUnFk/I86ACLXFp9m2t4MdD8SHm7oy7DkjRAqeQpZtRdtmDGHHAkmR3bv1CZPG4eufVoFLmX0sNx8/fG5N/8vRLS4qwXOPv8SwEbi6wXhlip+Q+4RyYkjgmsw1WDb5A8z/7j1cs3E59GbZgJl4s1GFK355hvH+1PTXcV7aZq95f27mq163FRoGjwReuGMqVj40C9c+sRUf/XAMxZW+h2QFYlbv/C8H/3xqK9RKCZ6++eRAsNA15rzT57Ldf3Rsp+PfKefihitv8+sC4M98Fdvlx3aa9dN89KY3W4BN2aFQSDswfojrRXtJnRRRags7QuiaKICtR9XsWIDLGMm9kyvkOFi0G1ffcCVbAPzyzWpcNPd0vP7if1iTSVMmoqmxCWfOPp/rMqiukWHW3/uQjo6OjhZDI2/I3quXb2GZ3AaVVE6wyejNcty77S5kN/QtrKu/xDohOhfPz3wFMjF/rG3yB4he+L2/WBHoBEACReUt2PBnBSgcbiCUqDAZ7r5iHJLj+IdL98f85p68CHU1dWyoWXNn4J1PX/d5WA4Od0oaOe75tsPnBicHwD9yND0y7HHvuSstDqgd+Q3YltI6KcztIRgW6/k4+vbbnsamNVbUP4oA2JO7FZOGW0Of9xzdCoVCgQff+guIm2A7RFDcG1qbUVeU7RZ87+1vcnDj0tF2/KZGjAQD8FmxaieuX5Ju91J4GPwSUEoMeGPus9hfOwoFTSkwWIIzRDNS0YwUdRXGRfued/3DIxfgnoWD/zMdzDMclhSKf54finNnpyCnqAmtneeVwTZn2t2PTY9EbGTweYLbyur7jasxa8ICVrVt8w7878s1WHIp/50ueewTHG5vzPocX0Rrb5ESw+Nd7/K5tlllCmQm27czmoH8ajlOHWW/GOD6OF4vuOoa5O7bg7LiEub5T85/XCE/iMuv7ukHwL0fyFem+LcfKhMU/0D+FHvJ+0kxuaA/oQgSGAgSSIhWgf6E0jsJcI5/ZNqmBcCj9z7J/p588VFceMl5Holr20TYmaeGVNzucXfukRgAnTEE24+qmTJPjnRv1SPkPpWsHYk2mftojC05GkRpLG59Ahx5ef3zjzAyNRyL5y3F0Zy8rtfPPPrCoFP8JVWtSI2AdcffNVMeNx89dio2FO+GyWyNxyTBSSUitBktyC+1wm0qZGIGKVjfbADFQlKJCpMjMcb6nzaroKFrRFohUzla3NSDprN2zmiWVreC4DCppMSpEa6xnmc49nfGI/VxbEd1zmg649EZTWc8uhrHGU1n/Dij6YxHZ+M449FZu8E477NCBy8ELH1eQhEk4KsEuAXAstsfxo/frcMj9zyBFctfws4s5z40ZNbPKVdALOrwi8InvhmaXwEh+XneqZPj4JikNiQ6LA6qmiQYEm3qSsHrjTxWrnga+UdykZQ2CoX5PVPNW8MfB08INCcTdsa/7s/DGDNi4Dh5ccwLV0ECggQECQgS8J8ENq7/HXdcdw8jOPu0mVj+/MOIT4jrGoDD16fw4NMytbx21l1EHG4IeGffcRXLzBcT6tk/gEIEF46zD90jklty1ZgxvBUSHuHt08achrOuvAunLr4ChUf2Yf3nbyLnr+5U3SmpyTjpsocgSpjkwHXgH30546cd/6xRk+Czc9/j7+5lM7/38kxEaGR46N3usKqnr7fmP92VXYvvt5axdtPHROO82SlYvek4DuQ1srpL5qdi4nDrTt+xf2W9Hq9/fZS1S4hS4LaLRrF7x3ZU6YzmC59no7ETeIHj0RlNZzwSTWfjOKPprJ0zms54dDaOMx6dtRPmbf8dcvbZOJOls8/GlXyd0RQ+b0D4/933v2sWiNDOgtTo29n/Ze7kM1BXW88GPnXeTLzwzhs4UqZg5nhHjPzecFenFYPC8SYN0yFC5RnNb1uuGicN1UOtsG+rN4bgUIkS0zKcA/y44nHTn+VIiJYjMUKM8tIKVDTJYVGPgFimQkd7O/IP/I6CwuOQjOHv++BqTH/V+6L4aWxy7mOKf/GDn+DN+07hxQ/z6l9+Eq8+QmNBAoIEBAkIEvAsgfmP7Xfrre2ZQu9b0O7/iQeewU0rVsNsMiJn65d46pnbek+4kwKZ5nMr5Jgz2j7ZjqsBKHSvWS/G2BR7h756rRh7i6wJf1z1dVVPil8VlgwLVBCJOmCyhMBotoe3MZvN+CMv+I4KfVH8hB45LGqUNUlPqw/JMNY+PsWVLIV6QQKCBAQJCBIYwBIgvCTxkHPxyCc7EBNyDM/deDa+++xjlvGvqrK61zMrrZfiWKX3Sn/bUTVr76j0iRFS+iMS7BcD3jBIc+yQRENrUkNvEqHVIIYznKiGxm5fNG/oBnObshqrRcR+aRPMHAu8CRIQJCBIQJBAv0hgT6EKISEdGJuix8KFU3HWeWd0jUtQt2u+/qHrme/N8VopcsrlmJLuvVlebxRhdFJP5U4x/yqZhTn1ecsHxf9nlSqYT0CHNAZKsZ4l94kLM8FkIZVojxLZ1mbFt/eW/kBoxxT/qkcX8+Z18eN7ePcROggSECQgSECQgGcJrH6M39GrZ4retahrETPkveHxBpbvnguXe+GNZxjqHy0Ampta8NBdj2Pm+HneEbVplVcpQ2WjFHNHaxkqn80rl7cUukc4/EkOXvzU4Y8cNWaO1EFEmL0uiqUdbKFBToH0d7hUyTAH6IhBpM9FrLoeQ2OMqG6WgpQ/EMIiFijTH5VmbU9HQhdDBX21qHOrz+L4NSoZGpznPwjIRO7/LB+7j1mFHamRQCENTsNERYM1dPD0iZFYekosRiYJscX++MLojRb8vLceb/xsdQyND5dC5O5/tj8G9YEGnZdVNVmxwOPCpVh50yiEKtl/KR+oCV08SeC/W6uwZnctqptM7DchXC1x+4PviV5fva9rMcFotu4abz0rGUtOie2rofxGl0zvFKIXqTY79ZjnBqIFwENP3oenH3keP3//CzP9h4WHYvuh37gmTq9kQqddvs4ocplhz1lHCt3LTGqzw+Hn2lU2SpjC5p65KyX2oRS+x2utqbhpTqOTDOyPa8NdO8ThKG5OQGyHCSel6rC/mH7DO2BpDwFZGai0tLQAofFclwF9TY61okiyX6nKOi3kQaCzskpa8cZPpcir1OPu84Zg7BA1hsUFL/pVm7Ed3++pxdvry/HrgQZ8fNtoDIkJXn4HwjeWlOmlL2VD22bB4inR+L858YgND95QU/qRL6zS48XvS3DZy9n426lx+L85CQNB1AOKxw82VuCzP6oQEybFiivTMXV4WNDy39HRgV3HmrEjt5ktXilJDyl/MY/F63dby3DG7GH9MkcC4iGlPzZZD28y6EVERoAWALu372Ge/2QBuPmaO/HWh/92yS+Z1iubpD0y6LnsAICc+WgXPiG1p4mfzPXkIzBjRLdjIJn9c8vlqGuVwGwJQWKECTGhZsSHOwcDonl3yBIQo6zFxKFy/JmvRHyYEVXNUkhF7TC1WxW/0egZ+tfdPILxHfPqn/+v93l7kEaH6KEOcS5QXya67NN8tOgteGjpUCRHW1dqvtAJZJ8r/p2NqcNDcdvZKbz+kweS52Aa+0hpK2577xh+engCZJLgtPK4k5fF0oGvd9bg498q2RzctRXeeSeBfYUteOS/hbhiTjz+Nntg7rpo0fL5liq8cd1IjE72bofVH179ZNan+Hk6IydzuS9lw7rf8OSDz3aF/v325zrExsfYkdpXpIRUTP4CbXBMmmPX0OaBw+Gn8DyNQ+geNSPzf5jCwsL6yhusGwMy09POXiaxP6O3IctuKYRwX5GKZe9rbchDUpwGWks8G6e0XobYMBPGp7Th9yMayKUd+HHDH4MGq5+L4w8Ku+Ty1UVIi1PgxkXJjp/RgHpedecYPLSqAKcvP4BNQqgjr89u6fOHoTNasOHxgRsiKhaH4NJZcZiSEYrFzxzE6/8cgWFxSl5yEBp3S4AsKU+sLsLr/xiBtPiBK8drFySC/s566gA+uS0z4BYsMuvnVcoRqrS4Net3fxKu7xaeOQ/0t+HnTbjzhvswb+qZrDEtACJjYrDvuBJhinaMSuLnIPf7kZ4gPXRWT3yX1JOi72BAPWmxRoxJ9o52WWckge1xxsY/Q1DakoyUKCPqtBJMz2hFqNKKEUDJfxpaxfjR9fQH7Bu2rYqP4p89at1fNX6Z9I9/1WFzViNuOCPJL/QCTeSRi4dhVJISh4s9Q08GmtdgGZ/M+406Mx65qH9Mm30974wEJQzmDjzxVU8I0L4eezDRf+KrIiy/LG1AK33bz4O+3499WQQy/Xsq58/qm99DzqxPHvuTh/nPsWvhWfNx5uJuz//zF16CvwpVaNJJeCv9Zr0Iqk7HOpJTG0sCpGCZ+EjpS0QdmDWyFZOG6aGUeZYl0aB5H+mEGZ44tPvooEOWAo1Ui1GJBnamzyl97vOJ7GWmQY5OsF2Z4n/3PusqjQ9zb671z4/aS9+X4NFLhiHEWxsQHyYD0FYhE+E/N4zC7e93J3sIABsDasiLX8rC2gfGY+bo8AHFtztmf3poAsyWDjTr/Hcc5m68wfauSWcG7fAmDNUMmqnR97u2xYSlLxz2OKcrFqZ6bMO3AcXCE0oewd0S+p6/f3JffPMZbNm/gS0Abnn+S3z6+vN49G9TebF5qFiB3flqhCramQc+eeHnV8kxLqUN88ZoWdY9ubTda4VPg9O8yceA5n1qJ1gQfbf2FCiBDgNCZVpm1p8z2vlmTcLDN4PXZAPQeEi8dZPPFP/6XQUBYAFYu6cW9y9JxWljIwIyfl8OesnMWBwocv5F6stxByJtg6kdKjkPgO0BMEmJOAQf3jIaN71rhZ0eACwHFYvk6/HhrfZ5xIOKQR+Z+eDm0V0e/+5IPPlJtrvXXr8jb/rfszVMiZ40VIeZI7ud4bwmwqOhTB2J829/FdPHh+P3bz9Cc1Mz8/z/4dufXVKpaZYgu0zOeKxqliA21ISRCQamqElZk28Ah7/P8PhHePZHYPM+Yp33yWk6u0gCUvq/ZYeyM32RqRoVrQkYEmV06RswcWQUjLrgC+nTN9e5lKmnF0zxv/XtPk/terxfdLK9A0ePBl5UkNfrrFGDZ5dnO+X54yOxI7fJtkq4dyIB8oqfFsQe2k5Y9rqKzvy5kE+vOwkNUVLbhtI6w6B0kNUoxZgxMgyNre4tQYcK/QMRu6dQaQXiSSaQGu/M4r35CpJ532gKwfAUGf79zvOIjoli5O6/4xHc9o+77EjrDCHYW6TEgWIlyEGPTPjT0nUgUzw51TkWUubebr7/KlRCHNKBian6HngB+48r2Zk+mfc7RCrIxAakx7v23J86Jgat9VWO7AT8ua2pFkmx3jmLcsw2NFv9IZji5yr5XG9d3Pvz2J1Hm6FWDK6dHidDiun/ca81yQVXJ1x7SmD9/npcPDP445x7ci7U9JUEvt7hH/+hvuKvt3QpQuHbXX07RzJvk5l8eLzRCsTjBPymt/Nw7E+WhbHJbVjQmVqXzv037/0Fr7y9gjX9668cvPTOji4T/vFaGVPMtKsnVD4KvQtzkaiHvPxptz83070VlZv3yEQDM+vHhnUvsGinTwsCtby9K6a/Qz4ECeoatwuK1AQNzK31MBn85xPhKDu+z9q6CoxIUeOpmybz6qrVW+XBvPrPmJbGqzM1fm51Pp68dCjvfidSh9Y2C6oajYiPCN449EB/HnkVevxtdnfaz0Dz4+/x1XKf19b+ZmXA0Cusbhu0GwL6ECiC6fMt7j3RH74yk/fnRTvi8gYpc2KbMULbLzt8jslNWRqQST3cRnFXNklQ2yxBSOoFeHP9eTA2l+Gha5biw6etiX5+/2s9xKJobD+qZg585EXvqmw+okGE2uIUyMd23rNHOUcE5Mz7yVFGpvTJgfDPAhVC9EeBMM+75pUPzcIdL+1CjdYIdXQiJLLA4LUYWptgaGnAhOGR+Nfl1iy4rmTmrp4p/luWTEaDnl/ihW3ZlLhAUPzuhCu88ywBvbF90Dh2ep6t0MJbCQzmBZM3jswT0sPh+SS7W5p5VTIU1chAELu0g+6vQuh55Dh3ynAdS9m7JUcNg1nEIG/pnH5EggHjhnBe9BE4PXsj5kw6HfV1DTjt5EW45u5HsGjJpZg5kmvTk/PaFjGSokzIdBISSAh9hTUyhtXvat6c0l8wtqXLoZEcCEcmtCGvsOeRQk8OrDWv3j2d3dQ0tKE6QFC36ckJUMp9j8LnnPt8p+BKOkK9IAFBAoIEBAn0mwQIkKaoRo7Jw3SI0ljx5ftr8MOlCsglHcitlKNeK4FS1o7UaCMI65/DhXfkZc3Gr/D0wyuw7odfMebUi1G87weMG7LQsVnXc26FAlPTezolUjrewho5pmW0Iqwz9r6rk80NnenTTp+LYqholCBaY2aLhbxCm4Ze3sZGKkB/A7kwO+T593/Dew7LLk7n3UfoIEhAkIAgAUECniVwyfKdHhsRIA2d49NOn3a7/aX0yxskIAx9Glsm7kB0qBkThugZDxRfT+frrpQ+TSoyKgIvvvUsPt60F9/850ncd+v9zPP/5+/X95gzxfCLRR2Q2WxRyxokbOziOuu8XSl97kxfJWvvsha0t1sz8xEGALcQ6DHoIK6oqrf6Kfh8ADl7rNVbcxDLSJiaIAFBAoIEgk4CpNAIsrZBJ2bK9uS0vnU6o7P6zUeszoIEY1vVJGEY+nMzWzAns5Uh53Hhdt4Kq0UvgqFdgfdWLsOic6y7/XtvfQizJy4AtwBo0omwNVfNjhGILjdvrd4675OGup43Z95nSr8T2Y8sI5uyNXDnS+At/wO1ndFkRSW0WUcNjKlUNhoDAooSGyZFpEY6MIQ0yLk0mttRVO36TLCvpi8VhwwaFLm+klGg6FLCrIoGA0wW789s/cUrJRLrr9wSpLwooY5S2sFAbfw1B2d0imqkqG2RoFEngUZhQXKkAelxRmzKDkWEygypjwFZ5KF/qESJ8alWxf3Sf57Doh834q6blqGxoQm0AJg6Ywrym4Z0eduTWZ/mrZF7B//LzPuRVkc+bm7kiyAWeR8SyPUbjFem+Nc8t5S3c9/ix/f0Gx49/Yde8W0xDh5vhToqASJp/ytgi7ERJn0rTG2tDGVusIYhBvOXfMnzh9FiAKSqcEiVnj1x/T2XDks79I0FkIvbcdOiJJxzcrS/hxDo8ZTAun31eP67YijDoyGWKRDizsbMk7a3zU36WrQ11yNCLcH/7hvnbTe37VY/doqdcx95rm/O0UAjt4CAePoiJp+y4ZGiJ8x6OqsfndiGIdH6Lk96QhrelBWK+WNa3Jry3U4MAOHwx4ebGDof1/aMcxbgcPGeLse/s+ZchEfeW4dTRrRi85FUhKssmJym6xGTz/XnrrTTJ6Vvu9Ond8drpYjWWBgYENf2RLzGR1l9E4J+x68zWPB/r+YgIjkDSWN7DxrU2w+bUm4ufnYXSxlMSViE0vcS2JLdyDDO40ZMQrwssJkbw+KHwGI24bVfckAWgDNOEo68+v4b4HwEUvqvrK9H0thTnDfo51qLyYj5j+31y4aooFyLhKRIZt4m8zop/jmjW12iy/kyVTqrJ8c5yj0vk7QzvPrxQ/RdKHm2NAloh5z3bD3jbd97e0+he9OHt9opfdu+f+z7lT3+ckCJ9vZ27K+Mwvp3/4WX3njStpnTe868nxxpRKZN4h6yMORVybHATbigU4KDsFLWaaZhZ/yXL/8+aKdIKS3D4odCGR54pU9ColAcsjpklfT0Mg1aIQ5wxl79sQwisQSSACt9ToxiiRRRQ0fj1R9LuSrh2s8SqG8x4fWfShGdGjywvmKpDGKJBHpD7z3r719pxfPfmadmZn1KqOMp3aw3HwEtIAqqZdidr0J2mRXMJj3OgFNHtbK89c7O6klxktInhdpbhzidUeRS6dvyLxKLUVmch1fuvBjrv/+ZRQDYvnd278y8T+1ocTMi3j1ugjN6g7GOEqJRYYq/VW/iPce1j0/h3ceXDv/bVQt1dIIvXfusT3jiMGhiknC4WFD+fSZkG8KNunbQbj+YCil/Y0fQG8yCSWR+5eXuj/NhaBdDJAmuzyBuxGQ8sKp3uU9IOV987kLmuU4ObISv3xuPfTJzE2IdeeHvzFOBMs5NSdcxx0DKd0/n9q4UutEcwkzzFDVgu4vm+2G2tIlAID+nZbrGGKB5c3kFTsloxdXnD8Fnq19mQ91z8wPM859CAB0L7fT3Fnab923nojOGgPwiUmP46zjHcQbDc1mNFR3CZ6/+yob+WUF5A3YRiA9EFRErYPH3g+BpZ6cIjwbtAIKtkBWKcOWF0v8SOF7TBlVk8CE+ko8B+SL5UsykwCpD8eGhROw/sIcpZoKX5VtK66VMyZKiJ694okELCFLeM0bomOL3BvOe4G//yFGzfnx5cGy/K0/NwvycWRQoxI6AeChSgTakoQoLNErrzpSw/unsn3wAqNACgACAuMKZ98knwXFhcqxShu1HNeyIhGsvXK0SYIp/1aOLecvjulcP8e7jSwdRAJx1vOIzxOc1k1fkhUZWCQTCS5uP7IOdPz5zGWhtQwbZ/8HvjsZhf3Uozkyrw9PX8jvCIIVJim7HMRXzfidnuOHxbZg9qhUxoc6hbt193pRAR28M6cK0d9fW0zvCGyBnvpQo57tuOs4gIJ6p6Tqm+Ecl9VxMv/yfFXjprefYUIT6RxEAdbX1OEDgPA7e+xw/lAsgTNn7YxeO3mC4cuqU2ck0KhkChEA4GGQpzEGQgCABQQI+S+BovRJbSyOxZGQ1IhTWJCq17e6R4cgsTlC1dF4PhDAFNyqxjSXlsTV1+8IUxdjvLlBhYWeyHV9ocH3IPyC3Qu40dp6cC8nPYNZILZSyDnYMQQsVhZPMfERv0bkLsejcPTj1pIX4bcM2ZMwohVJegmsv7YlZv69IycIdEyK6k/RwPJ3I1+RYNZs+27b6gtwXHykknjmRv0DC3AUJCBLonQTIrP/RoURUaOW4dkJ5l9Inqs6Q++isnszhtmf1pJzJhE9n9ZQgp7dKv7FVzJLX+MMDnnb6FLrnCJjDmfWbO4F4SOkbzQTQE+JS6dtK+ve9G/DCtwegbarBy/f+g539333T/V1NKAGP3iiCoPS7RNJ1o2uzLoR8tle/d8eELmLCjSABQQKCBAQJeC8BmTKMmfU1Ugvmpja67Ehn2LnlctB5+7FKBaLUFtDOnjurd9nRhxfkBEdhexRB4I9CO32Kp7ctHL6+bWpcel9QLWfzsm3r6p7M+0mRRvzjsm6H3/U/bsAvP25k4Y+HSxQYN8Q/c3DFw0Ctr2uy+uYFl0vsQJWmwLcgAUECggS8kMCxeiV2V4QjNFrDdvmOXeisniwB/7f0bGw4DIaQNzrJgFFOMtM59u3NM8Hw0gJjaobOq3A7T2OR8iXMfu5cn8z6xyrlzCpBFgrbQhEHZGmgeXoqtDBRyNoZTDBgdfz714334defNrFz/3//lIsOfSXCRlpN2p7o8X1vMrfjy18LkF/awvwR+PbvTXu5VITxGZEYPyIKwxI1vSEFpviDHbmvVzMUOge1BExGA8JS5uHHr17BqTNOCmpeBeb6RwJGvQ6/vfck5v8Wh01r3+qfQft4FNq5f5qViLRwPZaMqsZL31HI3zA26oFqDVP25McerTRhZnIThsWboIO0j7mykqcoAEr0Q7j7/ijaNhHIjE/peMlj/7cjGiRHmkAJfBy9+kkurQYR5mZq3Q5N7Q4UK6GQckq/u/krbz/PHr7aUIO3HrwaR/fvQFR0JDgwoO6Wvt+Rwr/u6W2gMN7oYWMgiez/lPTkGvl7YTN+3lcKQ0st3n94Nu8JqRTW6Chhx89bdEIHf0qAC9M75+J/MbIP3HU1Hrjr7/4cQqA1wCRA3wmKz9+z7whbFKpVChw//D1ksv5RhP4UV5tZhM+z4xnm/P+NrYDOJEZBoxKJw0/BBwdFCJebMCO5CddMqLAbtra9f8JXyV9ALbcw7387Bnx8oJ1+ZZMUc0a3YMNhDZv3vDHaLsx9R7Kbj2hA7935JpDS/y07lJn3x9gg8tnSoiOEoWlDsfKD5Xjyoeew4edN7OyfwgE37/3FtqlP96T0E8dMZwBuPhHwUye5Ogz0ZzGl4PpntuGZm09GTIR7R1DboaPDrW3ZGf/6Xb0DnLAlLNwLEuAjAbFYgpeevqOry7Mvf4Rvf/i961m4OfEkQAiNs69YBqXCCs/cqmvDtPlXDzhBkOf9N7mxiFcZsXh4Df6qDMPXufHYVR4Og74ZF42qwtJRNUjSGHvM7clPsnvU+bsir1LGYub9md2PlH5cmAk7jqlZGOGMEa0ulT7Nh4423Cl9akM7fTrTz3RxFEAgQ4dLFRiXogcp+n+/8zwiIsOZuCjk755bHuyV6AxGC9vpBxOmjFgqB2XaW7ulxKe5sR3/W9/uw7QJp/IiYEXuO7FDJXb8vgmSausXzJnwanJK8cVXRQhT9c/q3RkPwV6XtasWI0+Jwasr7sKBQ8fwwWdr8fcbl+PvWI5/XnU+lt13c1BP4Zv//YyYMNc70fKsMny46nhQzyHYmMvdU40WvQXPLb8FW7bvx9drNqGgqJzt/qVSCfL3fxtsLNvxQ9gjHx5MRAdCAHSgWifDzrJwtrOfntTM2j71dRHCZlhN/XadOx8OFVrbOXvX2zpakOSUy0HwudOHW5HcekuT+m8/qkIIzbdZgtMytT3M+o5jEOYAQQW7Ku7M+7Z9/sjRICHCBJW8OzPj1gMb8fPaX/D0wyuwbu0v7G/rgQ2IiIyw7erV/Wfr8hGTPt6rtv3ZKCw+FZv3FuOaxd7njCmpakVqBKxn/P3J7GAa6+uP38fXHib0yDYPDYTX+N3F7/h7n6zBl99uwKQb3g1aKT359Oseebtjs8cmQgMnErhjQ89Kk8mM1LGLMQdqFQwAACAASURBVOLMGxEaN6RngyCoufS80zuVPjETAlFIB7QmCf6sDEOE3AylxAK5OhItRjEUknZIRd0Kq6/ZpzN3SqsbG2qCP3f6f+Yr2UKCQve8QQWkXTotQOQuYva9Me+TrGixMS2jFWFK++gBenfW4jPYHy0A7r3lQcyeuJCJl+8CgBz5xHHBF74uVfru4Md2/GdMS+P9fXtudT6evLT/HRx4M9qHHZQqFcjT0lWhXQul7/XmP4IrGoO9Xm9sh1LWLcPGpm4nHzKtbfjpQ9y7xjniVzDIJjRU05W21Bk/2jYLNJ0ONc7eC3U9JaAztKO9o6NLbs0tOpapjWt5wzVL8JdoFPcYdNc16zfjPzdPBJ3vN7RJ0WiQsPtKrQxlLdYz1ujkcHyVY2VdLTUjUmG2LgqkFna9/4pxLDSN8sf7s5DZnFD0xqb0RMfzZRxS3pWNEjTpJZie4Z3Sp3HyqmQsG6CrMT2Z97l+OqPYqdLn3tOVFgDr1v6Kjet+Y9XnL7jEL+f+tmMMtHum+G9ZMhkN+mpevG/LbgBwYiv+p95cietOT3Ipt/mP7cd//zUG8RHBt1p0yXQ/v3jgswI8ffkwpE+8EPUNVvNmcmIsnnjoBlx8wQJUNdL5Z20/c+X9cFt+X430eKXLDoufOYi1DwqYFy4F5OTF7e8fQ3WTEVOk+/DEive7Wqxa+QQWn2U9kqT/W8FadPo2DAnjQtOcx5OTqf/hi+xN/VqjGHqzCI1tEsjVscgplzCPd/KSb++gYwP7Qh7uGkU7pGJaJFkYJj9l8KMYeWcLhj8LlCxUz5uwOfuRnD8RaiD9Uaw+YQuEduLrO2/dXbunQIkmvbgzJK+7nu66zPuSDqfvudYEJ0z4/6eO7t4ocO+cXV999wXU1tQxxz9aAIxLncL8AR575yO75tPHzMU/broK19/2D7v6wfIwJN4a5sgU/4pVO3H9kvTBMjdhHgNIAi2N9YhI7f5PdmDbKqQNdb2YGkBTE1j1UQJNNRX46c3H8RNtJwFcdP58fPDmIz5SGzjdNDIL6C9WZcJdz+7Gm8tmesU8KUtaHFBYHP2V1MnY1WAOgcFkbzJo0gF1Wglk4g6oKRmOvB1SSQe70oKBw3J3N3B2qQLljRIMjzcwayb5MgyJ9s4qRxC+hKo314nC7jLvR5gwxoNFYttRDYbGGCGXeH9MEhMbDW4BcNrJixjW/+1Lz8OyZ5Zj5P+dw6asa9XhtRf+g1atDv964DZ3YhjQ79i3YvuhMt6TWHaxsFDgLTShQw8JGNuszkWjRgzF91+8JCj9HhI68SradFqwA2AAv3z72gmh9B0/5dY275PL0O6e4HqTIs0YGmM14xOELznOzRvTwmLfif6IhDYkRpiYhaDNHILyBhmOViqQVarErnw1O/v/LVvDIHuzy+QorpWiolECSqlL3vdU6Lm8UYpojYUpe6oezwMlj/ILjEgwOHX8Y+b9CBMyk90fQzS0knnfgow4zqpi5c3bf2kB8MIbT3d5/q948DEsu/1h1v30s+ez638/+cpbcgOqXVW91QLFdvy+cD57bBSAE9ur3xe5CX3sJRCdkILmUuvZm/0b4elElUD80BE4+6438MVdY09UEfht3tuPqpEeb0ByJPdb7d3OnLMimCwhqGsRI6tUwawKnEWArAYUW09ld74aErIgyK0WBO64gTuGsHXgo4x5jsl/7Mz7Hnb6ZAT6q5ASCNmj//EV2FnnLQL9vfDKF/j4lRfx43fr2N+2gxsZ9C/t/JubWhAWbp0jX/rB2p5CAKkwxX/f5dN583nZc/uw9oHgC3HgPRGhgyABQQKCBIJMAh/cN6VXHFGimn1FKrZ7jgvjlL73JDkrgskM7D+uZGb91AwTM+2Tot6dr2IOgo7e9PSOPPbpyKG2RQyj2Xr8QFYDqqcoBwIN4opE1A5zu4hZJcKVJhB0MLdwoKtjIYvEaZm9U/q2NE+ePQfnLz0Left2QpZxEf55zT+7Xp85+3xsP7Sp63kw3TDFP2tCCm/nPj6mqMEkMGEuggQECQgS6GsJaJQS9CbCnnbFtDv2RelzcyOz/tEKOTPrD4vtthTklCvQanDuTU8LBsq2p5RZGIAPR4syC1KSIUrBS/4IZEnQtonZ0QGFOxpMISissQI2cX2k4vauRQBZD8SiDjYnq6Njz0UB18+X69nnL8ILL32I659YifuWnASToQ3NTX2HpeALj/7oEx9ljSrx2dTvDyYEGoIEBAkIEhAk0FMCBeVaJCRF9nzhRc2mLA0mp+kQoeoZ2+5Fd4av//sRDRIjTZg5shVSG/yx1jYRS6jDd9dNSn/yMF3XooD42FckZYsDb0ILS+okyK1QIjNJz/IKkEWBsyw4RjwQiJBKbhvx0N7pvGiB1EHjvbjsbsSlZuKcv9+FA3sP4JPXMvHCdwcZNO89F0zAh29/AmDwHDnJOj9MJobz7/8GHz3GD7nvv8uEhCre/CcS2ggSECQgSICvBO5feZj3bzLF09NZPKHx0Q6ZbyGz/rEqOSobpTjNBb7+jjw17/N1OhagnT5ZAqjQccDBYiXbzXuj9MlykVuhwKShOkSHktOj90cXNBYX8VDdLIfREgJavNDCgRYMd732Q5eYrrrvRWDZyyDkRYNeh1d+OIJVLy2DDpXIOGdwhOT2GrmPTFF8PoAu6fK8sVi8927lSbpXzTvazZCIe8bW9oqo0LmHBEKVYnQQ3FgQlo6ODqhkNtuhIORxMLPUbu42Pw/meXozt5I6KchxjnbonIL1ph/XZm+hElqDiKXSdZYIh5TlrnwV7/N1Ct+jsEKOJ5atLzuURRd4o/SJv41ZGsynhYh9ZCLHutsr56tAUQ/O9NWmP8uhDk+C3qyBGfR/2fqbLleqGN0r7l4Bs9mMP/IGl9nfB1Fa5VzZ4FsohdtPaQC9NBvakBxtfyY1gNgfMKyq5GKYDb057ey7qZoNerc4/X03skBZJhHB1BkKGmzSiA51nbvBW17TEvnlk6cd8ZR0qynd2zGoHSniwmoZ6lvFoIQ6CeHOd9MHSxSg/bpjWl1PYxVUyzEyoVtXUMgehRSO8RCyx9ElKwQpb1+UPkfD01Uc0o5QpQVKGS0OevoOVNXwA7fzNF4wvGeKf81zS3nzct2rh3j38aVDYqQMFlPP7FW+0PJXH5O+FQ2lx3DGRAppFEpfS4B+4OtLjvb1MLzpG7SNgtWHt9T80+H+Jakw6oJvF9ZQcgwPLe09oumK672LmDpWKWde8nNHU7x+T6XlTtoUq09n+ZQdj0LsbM/ybfuRkx+dmS8Y6x1KHtd3X5ESxXVSxIeb2QKDnslTn3b6njLyEY3SOik254SytL0cTX9cyfxPmQn/LFChXTkKTQYNCBtAbxRDwvImkBy7//IK8v0xbFDQ4JD7mOKvrOP3gfbnDFbdOQZVR/eiruhIfw7rciza5dUUHMKd56a4bCO88K8Evrl3LNQdLdDWlvuXsI/UdA01qMjehS/uGuMjBaFbbyVw2tgIBodNn0MwFDr20dZVIkLcgpPSfE+ews3lu62eQdXoPJ/C9gikx9FpjaPj7EpmfQqpi1JbQEl1hsW63liRkswuU2BiqntQHcdxyJLQrBdjzmgtU/qUGIhT+o5tnT3TuLmVcpaAx9l7PnWEQ0BKnuZMf4dKFGwxMiVNB5E+F0PCKkCAR5TDwNZRkCwNJJtgPW7mIwPHtkzx3/DCesd6j8/xkf2HP3/25CgYWpvQXF0C+g8WiELnzEa9FjX5B3Hd6Yk4b2pMINg4IceM1Ejx72uGo7mqGPqmOlgCeLarb65HY3k+IlRixIX33/+BE/KD9zBpyoERHSpBbWE22s3OTdQeSPjlNVkkawuz0FxZhBeuyvALzc83us+zTkh6FY1SnDRU7xSX3xUTnFk/OdKIhAjPMsstV9iZ6l3RdawvrpMxZD2ZBOBr3idaFEZIyHyOOAGO47h6Zrv6Kuuuft9xFXPoG5nQhukZrThpKOUVaO+yOpBKoUVKVZO0C6GQjjwIHZAQCgdT0bVZP3OH4Abvp/jeHeTl6PmL4z1F1y3vOT8V9Lc9twnr9uVAxwPO0jVVfm/ClBIMGSLHNX+fyK+j0NovEiB/ik3LT8L3f9biSGkdappd71L8MqATIlKxCNPGh+LCfwoRLU7EE5Cq1XePRW2zCSt/zUez3gIT/eL3c6EF4PW3DUOE2uefU14c0xQJNW/B2JYu5eWJgMkCbD6iwfB4Yw/kPFd9KSyQdumecPOd9c+rkmP+mBbYmvedtXNW12YMQU2zBHMyW5297lFH8mjUiUH+BE06q7NtTKgJ6XFGZMQZ3cqoXRKDkpYopMpMSIowMjhi6pNfLQeFBUaqB5fir2syAAmdyH3xUfwcSUjy6/6qwdIpvsWZ9vjkvKyYOSoc9CeUE1cCZGk5b+qJO39h5j0lEBMmxQN+OFfvSTlwNefPcp6oikLjaHfqrdLXGUKw/Rgp8HavFT7Nms7/CVPf2+Q7nKRo90w8zhyhZdj/5Mjnrfc+0bBm/JO7DRms01qVfLNOBEoQFBNqRqTaDDLde+M7QOOQuZ92+CEdVRgSVoahsRHYkkOhilp2HDAuRY/Dpa6zbnLzHahXZup/974zefP/5trjvPsIHQQJCBIQJCBIwLMErliY2qMRAdaQ0h8aY/BKwdE5+848NcisTx77fAol8EmJ4h8uWd4gRUubmMXd8/He53gjxR+q6LnLpl09KXw6qycoYgovpJj+acx0r2fJibxV+qX1Uqb048JMCLE0wtIuAvk9ZCZZow+GxRqYD4DV0Y/jbHBcVQqrRaR/bFODQ2bCLAQJCBIQJBAQCZD5e+tR78BzOLO+KAQugXjcTWLHMRWmprd6tbhwpHOkXMEUNx9HPo7GgWIFsw4kRpiZkifTfW929Rxd7kqe/IR1QFYMLsnPxioxyrSJTOkndy506DiECoEYDbYSHW4D2esLct+ikwXntsH2pRDmI0hAkEBwSOCS5Tu7kPv+yFEzeFrHrHaOnJJZP6dCAa1exMusb0uHhe7J2lmaX9t6b+5p10yFUAP5mPdpJ0/Jeehcv6ZZipzyDqTHGXiZ7t3xRwBCW3I0GJXYxqIYOMsA1XcoMpAaVobkqBPjCLmh2YDUiM4zfndCc/Xu1sXD+s25zxUPQr0gAUECggQGswRa9NaENuOHuA+n48z65O0/N9O3nSrB2FICntmjfOtf3yrhBc5jPauXoUlnNTyHq8wYlWhAqKLb4763ny35HOw4qgaZ9W39FejYhBYqIaYqj0NIxSHgf+jhkWxAGmj1vfTqDwjXwqCCBAQJCBI4QSRAoDLkFe8OOIfM+nmVchbad1qmb7C2nDh3HFODQt5cAflw7Zxdtx1VIUxpdrnTJyVP8yFTe0dHCMu0Z93V6xkkL2EKTE7TOyPtUx35BBA4EeHw0ELIFnGQlD5ZUehMP7exCYB75/apY2LxW34T5JrgsgroGmt8kg11YkstQu5r0PODJVz8+B4WXuXzyEJHQQKCBAQJCBJwKoGrLjoLB46DmaadNgCwt0jJzPojEw3ITO6GxXXV3l095bmfm9nCW+mTpYHi9PVGEWaNs1oKSOkW1chQZKPk02INiA01s3BCWz7+KlQyLIIYlnzH9o1v92S+JwyA2hYJw/fnzPocNU7pc8cmuV6A8p176hB8vWkLksaewpEJ+JXwbPSNNbj90kxevESGWbFHBOc+XmITGgsSECQgSKBvJfDhwUScNrwJ4k4PbMfRGltF2FOoZmfgEX6IMz9SZgXL4bvTJ6VPiHxiUQdz6CNUPLqPUFnYGX1Gp5OcI//cc6NOBLOFwvF6evFzbfhc/yxQos0kwujENjg7GiGnRTrO4JQ+H9qP/vMkPPHeTmhikhAW3zPigg+t3rYlILnagsN47+FZkBC8II+iUVrzSDDFv2LVTly/JJ1H98A0bWo145udNTBb+h+9TykXYXSyClOHhwVm8sKoTAKFVXpkl+pQVte7HY6v4lwwIRIZCYM3vtdXuQS637e7alDTFJiTWAKXOufkaL+IIKdOBZXUgttf3YU3l83sQZOUdFmDFBnxBvhD6VMq37IGGcMF6DGYmwra1e/Mowx2HbC0h0BnFGN4fBtSY0ygaAJvyuESJSYN630CLuKFEAmbdeIeZn2OD9rpk9If3Rmyx9V7e01PDkVqghrFleWgXC1ShfvjAW/p8m3Xpm0AwcafcUoSb6VvOxZT/NsPlfFW/Gsfn9Jvzn3r9tXjlbUlCFGEIjxhKEJE/Z8KlVKAfpOtRfOn+/Hy1cP9gsdt+0EI9+4loDdacM7Th6CKjIMiNBISuX9+aN2P6vC2owNrv6xEa30uTs4I9Rs8q8MowiMPCTzwWQH2FOoQnjwcEqmCy6rKg0Lvm5qLdfj3j4cYpvuPD42H0sdUzR8cTEK43IRLM6vxzhf2u2CdMQTbj2owNkXfa7M+N2NSmFllCo+he5zpnjL4kSOeKKSD7ewJTldvDMFJQ3W8d+1l9VKEqyxQy3u3iTtcokBNi4QthBZ0HjVw8+OujuZ9rp7v9YkbJrMu7e0dqG1y72zJl7a37eMiewcJXVLV2juvfm8Z7W072uG9/FMVojMmQSwNIDa6TAGZKhSa6ETc8+mfUEuBNQ94l0GrtzI40fu/vb4Mq7fXIHHMdIQ4Htr1s3DCE9NAf7lVJXhxTTGDku5nFoThOiXwwnfFyGoMRfyowCZLksgUUIRFsTwi5zy9i7fvE3mef3goCVeMqYBcYq8IyRy+p0ANtdzSFXvury+AK9jfeq0Y+dXd3vbRGjMz3afFGZmzHJn34zRm0Hk6AQOp5fxgkslSQLtvd06LnuZIZn1ahExM1WGcm4gHfyl9W35EohDERQ5sqx87ILjv8um28/Lq/rLn9nnVrreNXv+5DBEpIwKr9B0mEZGUgZYA5AtwYOOEeaTjHZmS0od6aUPsB8mExqXgp731/TCSMIQzCRwpbcXP++oRGhs8WTLp+ylTaXgfQ20vC0e8ymCn9D+4bwrIY39PgYolq5me0XuTuK0cWw0hUEi7w+ZoV5/PktoosbdIBW0bme4NmJLeiknD9Cyun0z4B0uUSAi3wvA2tEp4K33igWgTHr6vJa/KatYfEm1EbJi9ZcSWJil9ch701bxvS2uw3TNT/6wJKby9+lv7SfHtL9QiaWzv01z684Oj1T3t+rZkN+LUMRH+JC3QciKBEIkc0WljnbwJXBX9yEuVGrbLC6YFSeAk0r8j3/9ZAaQKVVAtBkkCMWnj8MCqffjkds/e1qRsfy+OZKlgzxle1yXAFqMYm/LjIBXzw9fvIuDhJrtUjvJGGShunhzyqETZ7OqdndGTIx8pfYKxpR02LRLGJPMPv6NEQaeO0kIutbdseGCZvbbu3jUs5NCVWZ+jw+30RycafIIe5ugMtuuQeKtvAlP8ly//Hm/eFzyhCrbCFon4eS3a9u3Le7kmAjllZYLi70shA6hqNEKmDg+6H3iatlwdhqLqNqTFD2yzXx9/hH1CvkVvQWhcAPw8vJhNqReOpyEhInx8OAkZETrMTW1gVKtbpdhWFgEy/X/2zU9dyH1eDOm2CZnuKYaeC6+jM3rCo6fsdc6UvCMxznufdvqk9A8WK1DdLOHtHV9YI2MAP3yVvrZNxHIOyFmioRZH9no8c0rfF+/9HsQGWQX5J1Bhir9Vz98b9r/L+ic1qbCbGmTfvEE2Hf77lkEmAGE6PkkgKmUMRkW1YmYyAcgABksIfsiPgTgE+L+xFXjDJ6rdnciaQClqKelNYycyHu3qyRlvXEobL0heW/M+jVDdLGUKvHs0z3fkq1BQJcM8nvj3NI9d+SqQWT8jznMkT5d5P9FzW45rvcH1cQHXZqBeHX+fymp0GBbVC8hejZLWDFb4v4EqFIFvQQKCBAQJ9KcE9CYR1hVGw6irxKwUa3TS+sIo1OmkuHZChc+s0K6elHyTXsyQ8aLUlKrWiobH7eopdK+yibzpvXPGczTvE3PFdVKMSGhj2fD4MEsOinQ04K0B17pr17DogfljtF4lDOJ2+gT7mxLt3WY2JV6NY8XNmDgiis90BkzbsmrnWRnZjn/Vo4thQiOvyQjIfbzEJTQWJCBI4ASXAJ3df5UTh+lJzcg6WIJvj05FQ5sUZ2fUIkFt7+y2+rFT4Mqdj3bBtsh4ZLpPizVi8jDXipX6UOiet570juZ97qM7WqHgHV2wKUuD0zJb7GBzOXqOV0q3e6RczpAAuQx6jm2cPXNKn695f2RqOF7/8ggWzUjuVVy8M56Coa602v5bxC28mOLXqGRo4O+nEQzzEngQJCBIQJDAgJDAT/kxmJXchFHROmyKS0ezQYLJ8c09lL6ryTjb1dM5fZjS4nEnTTC25KXvbSHzfnyn9z7XhxIGxYTys/LSAoJ8Fmyx8jl6jldanOzMV7H2lHfA20JKn7z3aafvS2nRmZBT1IRxGZG+dB9QfZJjbZz7Kuu0kBMIk1AECQgSECQgSMCvEqjVS7G+IBqzUhpxtF7FHPiM+mP4+xzXJvfvdjYiIy3ZwSHP/a7eFdOEwy8Rd+DUZOdmX8d++48rmYndFvaWjgkOlyp57fZrW8QgWp6sDKS4aWFCQDzkA8AdTTjy5eyZ2+mT0rfNvuesrau6kzOj8eJnh/3mTOlqnP6u//SnPNx2ifPoEuYyf8ML63nzZEXu491N6CBIwE4CLY31CEuZh2tveRJlFb5nm7IjKjwMaAk01lTgp5dvRfiQ+aiuGdhYCRVaGX7Ki8akuGZsOh6FCXFaXDuhHPqW7u+6uR3YWxmKjw4lgtD7Pj6UiIPHzYjSWJjSJJP3/LFaqxc+zyAnMptTFrxTR3lW+rQ7d6b06ctESn9civdmYdrlE62Thurdns/vKVBiV54KceFmn5U+mfd9Vfo0t9suGYPz5gzBZz/nDej/N7bMN7casXlvJU7OjLGtBiH3UWGmfrs3woMggX6UQGhEFBQKGb5es4n9pQ1NwoFtq/qRA2GoYJNARGwi0qYsQOGejRg+aSlj75tPV+D0edOCjVW3/BQ1KfBHSQTMHSIcb1EyhU9KnhYD0Slj8cFBa5rXBLUBk+NbMDmhO1Tt46/zEHlpolv6nl7qDCEsS523Sp8Q+ci8b7vTpzEOHFdgWkYrCKLX20Ln+uSUx50pO/ajYwsCCuJLl6Oz85gKWh8T7nA0bK9L5g3Dw//5C2s2F+P8uYFNwmPLly/3T31wAHklzW4tGGz9GB/FP+HAur+6V6y+MCf0ESTASeCvzZ9wtyg8Xo7zLrsbOUeLuuqEmxNPAplzLsTC06Z2TXzplcuQX1jW9RzsN/kNSmw6HglzuwhzhjRg4dA6tqv/LCsRPxfEQKYIxaT4ZpydXouzM+qQoLF37jt/VlKvpki790MlSowf4t0u/WCJgil9CvVzLDUtUl5K32wB2+W7UvqEr08phUcmtPGiy/FF5n1S+r6e6XN0HK/3Xz0B3/5+HA0tvvkKONILxPPh/Aam9JfOG+p2+JCOjo6OFkMjb+S+q5dv4Y1J7cjJ/Mf2e6Rx+hOHED+6+wfAkUagns1GAw7+52rEdOY3dsbH0XId0uIVkPJMneiM1mCtK6s3IDlKzqbX3t6Og1nd5raoyDDs2PwlrvukHhFJwZc9srmqGFVrHoJc6tr+mlepw/AEwYGGz/e3pLYNJksH0uOVMJpMyM4ptOv+zr/vx8pD8QiNG4LQ2GS7d8HwkCBuwpgRaRCHdMDSEcKusSojJsW3ILFTwT/1dREevmiYS3Zr2xXQwZpC1WUjNy8IkY8c8cjU7q7QAoGUPv1EOe70qd/xWilT4qlehseVN0iQXebcF4Dw+XccU2NCqh5xYfycBLk5cGf6fL33uf7eXB94Yw8q6vSYOiYGF8xNRXy0Mqg9/o+VNOOzn/JwvLIV08fF4qalo91OMzVipNXUv35XAaZNCC5YXLecB8nL0uNFKPXAS1Y3EqeHlifu6xoXG7n6hmY88MjLwIirg1Y4R3K6FyqumNwvGMdcicZt/f5q569v/NcKTLj8Cecvg6A2TKPCWem1IGUvcb0mdMvpk59k4+6rJrpt4+olnZlPSWtFhNq9aZ6UvivzPtHOLlWgvFHqtUMf0TvSme3PljfOrB+q6F2iof5Q+sT3s7dS5lmAzsnX7ShDRa0OBqN7WdrOt7/vx6ZH4JF/nsRrccLO+N/6dh+mTTiVF7+LTrZ3GuDVeZA0PmXuPIxOdn1M8sNftVgwPtLnNJ2DRExup7E7rxnThoexNq06Pb76bmNX+0kTRmLF0/fgHx/VdtUF282SC89EGAOzcs7Z+v11WHRScELLOuc48LXbc5tAaZgXjI9CXUMTfli3leVE4Dj74+d38K+vPDurce37+/r79r/w6KLeIZseKmz2me2WNrFHpU/ED7kx79P78kYJYkO9A8Kh9nlVcqTHG+0AgkhZk1mfQH9644DH0RnpY8ieL8IMU8twycI0X7oGbZ+GZkPv0vLeupjMVL6Za4JWKjwZu/jqf+K6012fxR1+bD+e+tcYxEcEMJ0wzzn1d3PKp75kTBsWnHdL19A3XrsED959DSLCNQyrv+tFEN48+vDtzCTtirXFzxzEaw9OcPVaqHcigdvfP4bqJiN2rH0BuceOsxZSqQTHD38PjbozL8JX+530PLGryJlvV74ac0Z3Owk6k4j1/F/BHO+cmfepD5nsCRQoI97e98AZPaozmEJQ0SjB3Ezrgoyy/+04poEVX9/7mHxn9Lmd/sgEA7w9cnBGR6gDtHqrzmY7/jOm8V/VPLc6H09e6t6BQBC0IAFPEqgpO44F91vNtilJccje/aWnLsL7QS6BisIcrP/oZTbL9GFJWLH8NixaEJxJxPrqo3j4Sufx1+7G235Mg+HxbZC5idXyZN7n6Ls6p+feO1635GrYkQCZ9XPKyWegw+sjAkdats+c0u/LM33b8U6UbXIOEQAAIABJREFUe3YCdcuSybznuy3bmlGKd0ehgyABGwlowq0Y2ffdcSVsvfttmgi3J5gEQiNjESISQ61SYPemj044pU8f94R0a6iftx99VZME0RqzRwx9Zt4PM7FEPa5ok+UgUu29NbdJJwKd33PmeIM5BFMz7KFiXY3lrp6jRzt9ofhHApGdzuhu1ob+GUigIkjAnQSUmlA0l/7mronw7gSTgCYiGmfd+Sq+uGvsCTZz36ZLu3gKkfOUo57i8QkVb3xqz5A925HJcuAtTj6NS4l/aKFAToX+2plzO31m3o/x3s/Adh7CfU8JaJTWSBGm+M+//xu3wf49uwPLLg6+8CpnfA7GutOv/QCrXrgEj7z2KwpKrJYXiViEn1dejYvv+ByNLd3/sX/94NouEeQX1+O5lZtRVNZtrVEppFjz1pVdbe594Wc0a9vw7wfPxXk3fdpVr5BJsPbtq7qehRtBAoIE+k4Clyzf6dVvMu30KV5/wVjX5/rsTL9UwcLyPCl9Sv4zOrH798PdDMkyQONToTwA3mb9c0eT3lmVvveLD0/0hPfdEqiq1zPnPh+DTYDZYwdnGsNuEQX33aOvb2AK/qbLpjNGzZZ25BTUwGAyY+kZYzFvmnVhdrSo2yM+t6iGKf1Fs0fgjitngq66NhOabBYKRIzgNl98fwtOHpuE6y+dilNPHoY2oxl/HvIUvBjcMhO4EyQw2CSQXaZgDnQhIa5ndqhUgZpmqdM4fdtebaYQFNbIkBzl3Q57d4GaLSbIY9+fSp8D97HlTbj3jwSMJmtYomDq9488+53KZWdPwGmdyn3x/NG4+I7/4ran1sJ2h5+VX4WXP9yKt5dfwPg7c/ZInD1nVBev584bjc27C/HGqh146MZ5XfWFpQ04bVoaLj+3MyRpEfDu6t148JVf8Pw9Z2LSGNeRDF1EhBtBAoIE+lQCOeVy5nk/LNa15/2BYgVoTUAWAXeLA2J0a66aAet4akeZ8BpaJVDLLZgxovdn+ZyQuJ0+IfqlCuZ9Tix9cmU7/jXPWfGw+Yyw+PE9fJoLbf0sAU7pE1mpRIyTRiciVG0fNjhxVCIqartNgCJRCIuH/uaXw7h7xU/4291fsJ18faM9uldyXFi30u/k+x8XWUEtNu7M9/NMBHKCBAQJOEpg9WPuoxj0xhDUNEvgSumTef9gp9KfkNrmUemX1UtZEiBq66o0tIpBiICUPhfo8LPSB/7IsZr3BaXv6hPofX18lIIRCfodv8Vi6f1s+4BCu9kIjVLcB5R9IxkiApQKe4hPsdje/rf09lVo1hpw4eljcPuVM5AQE4p7VvzcY0BVpwOI3YsO65PYFQC3XWP/PUSHStFu9s706L9RvaPU0W5BhCro/wt5N5kB2MpsdK2kAjkdfyB0F5RrkZDkOj/8tqOuz8C5kL24MBPcKXJbGR0pV7h06KtokCCrTMkggCmpDh0vUAIef5WdeSpo28Qux/fXOAIdQCa16iy24798+feCTHhKwKinNJmdYCI8+waqOSl9Kjf/7RQMTYqEXCaB0dwzbIfO8x1LSWUTq0qI7V9oZ4k4BCa91g65zZG3QD0bWlsQFWq/2AoULyfauLQgNOm6rVnBMv+Ojg4MjbXuqnrD0/0rD7vsXt0ZuueqweFSBUjpuwLncexHGPpRLsL3CIiHlD4l+yHcf2vinzaXWfccaXt6pp8aUvrkJyCUvpdAe7t1B8cUf6ue/45q7eNW029fs3pqZjjaWhr7ehhe9Fvrq9BceRzTR1qhZnl1DnDjuGh7iGEuKsCWrZKKJqz86k/bKnY0kBCjwaVn9T8KnSTEgpq8A3b8BPqho70d7Ub/nW8Gej4DbfwX/56BdlMb6HMIplKTfxArrszoM5YoZI6S6kwaZn88RwPSbzqZ96l4Y96ndtXNEpY4Z3KaPT3OrE+KnkL74sPNDJkvTGGBWu4fmZPS/yMnlNEfKpzps8+tr/8pq7H+Zvlsp6xsMCAjqu9N3csvS8Ppyw+gMUSE+FFTEOLJ86SPJddSUwZLUzneu7nbSa6Ph/QbefIFqK5rxeX3fMl20LUNOoxOi+1Bf1hyBIpKG7D4xk8QFaFEebV1Z/X1q5cHRP4/Pjgej68uwu7Cw4hJG9eD3/6uqDt+BAZtE3591LckKv3N72Acj3bV6x6ZiDOe2I24EZMgkVkzPAZqrmaDHo3lBThtlAJkjehtSUu0X6ATPdrpyyQdWDC2p5mdlP6mrFC20/fWvE80DxYrkZnUvdumiJ4/ctTMS982ln93vgotepFHrABv522r9L3tI7TznwSY4l/16GKYwG9Xfd2rhzym1PUXmyuuTMeTXx1H9bH9CIsfAjA/VX9R944OmfDI5NxaX4mPbh2NVD+Y87wb2X+tnr3rDLz4wRZU1mqZQ+DFZ47DodyqHgOQE+AjN8/H+bd82qX077p6dkCUPjFH/Dx2yTCcsfwA6oqOQBEWCZG49z+uPSbuRYWusYYp/XNOjoajD4UX3YUmfpQAHQNdMC0Ga/7cj7CEYRCJfd7H9Iori9mE5soi9qu07EL/LAZXXD8ejvYkOlufObLVqaMeAemQeX/ckG4l7mlSFL5HiHtJkVaLL5n1CW6X9laO6Xyb9WJkxPsHQY+U/r4ilWDe9/QB9cF7zkWL/U/RqGRosLf09MGQvpOcnB6Kb5eNg6W9A1uOWM+afafmW09CvEqPj0RKdIJvBPzYyzZkjyP72C0LuNuu693XnAr648rE0Yn49PlLuEe3V4VcgvXvXeO2TX++FItCsHH5SdC2WXC0XIdmH46n/MHvlPQh0Chd51H3xxgCDe8lcPs5KaC/XceaoTfyP7L0fiTXLcOVYkxK7102PtfUrW9yy+UYGmtkO37btrTTJ6VPhc9On9pT+B6HtLf9qIqh+mUm94zJJwvAqaO0kEs7PXxtGeB5b+o079OZvmDe5yk8PzRPjrVakpji9wW5Lz7SPnTMDzx5JEE//qeNjfDYTmgweCWgUYhBC0GhCBKwlcD0EQPP38aWf8d7W+S+37M1EIk6MGe0fSpiX837NFZpnRQZcUZsPqKGySLCrJFaKGU9FfvxWimL7feX0t/ceabvOF/huX8koGuzOm77jNz33h397+TVP6IRRhEkIEhAkEBwSIB8F83tcOqh74t5n2ZFpvb8ajnqtGJm1iePfWdKv1kvQl6VHCP8kCSHdvp7i1Qse2BwSPbE5KKuyXpcE5hDsRNT5gNi1tMmpKCtc1U4IBgWmBQkMIglsClbw5z5HH2abb33+U6fgHLIT4oUujuo3d35aub411tcAlL6tNOnlMHDYgNzHMNXRoO9PVP8hNzXoK/mNVdC7tu0vG/PtXgxJDT2iwQuXjTeL3QEIoIEBAn4LoEvHjkFf+SrcHKa3s6Zrzdn+hWNEmSVKpEUacSYZPeOer9lazA3swWdeC8+T4RT+rYRAj4TEzr2WgIqhQ2AT6+pCQQECfgoAbnUHl3QRzJCN0ECg0oC2VUqkCd9pNoeuZTM+9XNUl7e+yQYyqRHSl8qboen/Pa0uCBYXn8ofcG8H1xfy+hwqyMoO+Nfv6sguLgbJNyQUosLD0zY2UARIcVjF1QFcUhJLwXZavAP2Ekv2RC6DyAJtBjFyK0IwZzR9vH6nHl//tgW5oHvzZQ4IB6K1+cc+CQe4Fc2ZVmPF7yh76oNt9OPDzcJ5n1XQgpgPVP8b327jzcL/kDumzBUDYulpycpb2aCsENlgxELJ0QFLPY9CEXilKXTJ0Zhze7u1MFOGwmVggROIAl8lROPL9du7Ardox04p/QpZI9Ciz0VMuuTx35RjYwh450yQgfC95+W4YgO0E2JwHv2FSkxMdX+eKG7hXd3Jov1TJ/M+8KZvncy669WJVXWyBCfvfr9wegDS4bi0S8L/UEq6Gjc80kebj0rOej4CjaGUqLlWLunLtjY8gs/WSWtuHB6jF9oCUQGvwRop/9ZVgL+Nqaya7JcyB5VeBOnzxL0ZGnQ2CpmYD8ctG9xndQjYA45EhpMIYgNsz9e6GLGixuCFN58xArD60VzoUmAJMAU/xnT0ngP/9zq3qdnjY+QYUduM3LLXK9CeTMWJB3K642QSwO6rgoSSXhmg45EuOQRnlsPnBbvb6zA0lN6QiIPnBkInPanBH4/HgmTJQRKSTsevjKTDc0nZI/M+rvyVVDK2pGZbOg6o6c89wVVcgyJdu1RT2f6ZEjwNrGPM7nQTr+lTYzhfkL4czaGUOcfCTDNdMuSybypbctu4N3HWYeLZ8TipnePOns1IOsI2vepr4pwz/kELSwUbyTwv3vHYfGzh1BUPXjO+pc8fxh5FXokRQUWQ94b+QttAi+B4iY5c7z7+/gKxsz4tHBe5n3OrE9QuzNG2G+kCHkvQm1xe0TwW3Yo5o/VQq3wzSeFmfc7d/rDYo2BF6jAgVMJDIm3Ivcxxb9i1U6njfqj8qYzk/Hp7Zk4ffn+/hiuT8cgpb/g8QMobzDi7MnRfTrWYCKulItx85nJuPbNXJTWuQ8zGgjzvuHtXFw0IxbfPyCERg6EzyvQPNJue+PxKJyZXs+UM5n312ZFMbbcmfc5s/6Gw5ous74jEE9lowRDY4w9sPe5OdNYlIBnSpo9KiD33purrdJ31f6+ZR/gjjvfcfXaZX15RT3uuPNdl++FF75JgCn+7YfKePdednE67z6uOiRHyxGpluK1H0thMPm24nRFuz/rH/lvIUYkKvF8H6bl7M/59OdYlPTmznNTcOvKgW39OVCkxbEKPS4/Nb4/xSeMNYAl8FdlGCbFWzNg0jR+L45EcVklxqW4T7jDmfWnpOu6zPqOYjhWKUeamx14QZWMhQ1GqH373SWlv7dQ5TGBT11dC7Ra9/Nx5J2ed+/KhVY7eCyBzubYn3VV9VZZ+ozcN3ssrUituL/+YHz1PWOxens1LnoxC1EaCR65aBgyEihTlBcurP5gwEca9EP/5FdFqNea8cjFQzFvXKSPlIRu502NwYyRYZj/2H4GWnLfBalYdJJ15xPM0mnWmfHKD6XYnNWI2aPDgwrYqri8EXc99xO+fu3yYBbhCcub1ihGfqMSfxtTBdp9k9JnqXF37sW1i7oTbNkKiAPimTlSC5UTfH2urd4Yws77XYXv0dl/aYMMs0fZhw1y/T1duZ0+Ze1zt7ggOm+8fiMsZNrgWS64YAYWLhSA4niKzWVzY+fGmin++y6f7rKhqxeXPbcPa/1syrxkZhzoj7LwvfNLOXJ+0qGomv8q0RXP/q5Xy0UsZO/rewOfI97fcwsUvdhwWZfi/GFPLa59Mwe1za6dkgLFJzcuLVJHJqlYBAelDg620txqQEvrwD8+cSVX+iG7YMVhtHX+oInFHoLUXRHqRb3FYoFaIcbfZsfxsvTsLg/D4VoNrp1QzpT+R4eSMDRMjwXDGpBx35QeHBXWyJBfJUNypImF6PVoYFNR1yLGvuMqt+0IutdXRD1O6XvbX6n03ddFo1HazEy49YcEmOKfNSGFN2Rva5vvIR+eGKcsfHTmK5QTWwLnTokB/QnFdwmMGxGPr179m+8EgrzndW/nwiKSI274SIhlgbEQmtp0aCg5ivc2VOCMiVGICfMOtOtwrRqJGuuijHb6pPRPS7U6TWuUEti66FF4Xn6VnJ3Fe2OWz62QQyJyjZHSohdBLfftN7zLvB/n/YJyx44c9k2aMWO03TcqK+s4tu84ArPJgkmTM3DKdPv3zc06ZGUVg+tn+9zU1Iqvv96G6OhQzJiZifg4IXOrnXCdPMRHWZH7fDb1O6EpVAkSECQQhBII01j/swchaz6zRI60d3+cD60yFbHxgXWklSpUiBthNUdf8tLOLouVu8nFDBmPs9LrkKgx4rfjVvM+7fS5UlCuRUJSJMg573CpElEas9e7c4rFpxPSOZnOTfjZZXKUN1iBfbjxvL1yO/2MOAPS4rz33n/v/fVsCE6B08N117/G6pYunQVRSAg+/HADVq5cj6uunI+5c62OsVVVDaC+XD/umepSh8Qyhf/ll39g7Q+78dyzVyM2NtzbqZyQ7WSdOMzMue/8+7/hLYT/LhPOXXgLTeggSMALCZx+7Qf4+Lu9di3/90sWqL6yttsJjJ637T2OTbvy2Tt6PvO6D7FxRzfGxuGjVeydLTGD0YzXPt3e1Yf60V9TS/exGteP6J9748ddbYl+MJTlq4uwv1ALZVhglb6jLGIzxuPFNcWO1XbPxc1ydHRYEK+2Kn0627dV+tT40z90IOhcis0nc/rkYd47uG3JVbOQPmcIf3TuX6+VsAQ8dkx58cApfeKHj9J3RvqLL/9g2B0r370dZy46GWecMRnvvH0ra/rJp5ucdbGre/ed2/DYY5fjjNMn4e3/3AKFQob3P/jFro3w0FMCvUbuI1OUUAQJCBIIrAT2Zpfj2Xc24+oLJ2P6hCEMAvulD7e4ZWrZS+uw9rccJMeH4ebLpyN9iNUh9c5nf+jRj+inJITjxsumsXcEsV1R09yjXX9X/JnXApkqtL+H9TieVKHGnvzuxZljB3Lm+6MkEg0Vx7C5OBKFTcou8z7XtqpViknjRncB8XD13lzJMdCZwuf6Hi5RsmgBvgl4fDHvc2M6u+7bl4/09IQerxITvHOOFtvkCpZKJUhLi0dDg3MLR49BhAr4rL0rGwzIiOp/RxrhMzsxJFBc04YHVhWgosF7c2IgJUNx+4HwS9l3pBzrVl4N7ofw/Js/ha7NtTNkQ7MeWceqMSkzCc/feyYT2YULx4JM52f840M0tugREdrtTEX0P3h6KWu3eF4mLr7jczz/3ha88sA5gRQ39MZ2hEYE55ludZNr+a/Oicek+GY0NaQxh76/jysHp8PIu39XeRiiFCZs2775/9u7DvCoquz/S++9kYQECCQklFClBVFAikhAQFERG2BbbOu6FP8qYMVFXXXFBqg0XRGlCVJVpLqURDoEQiCk996T/3fv401mJm/Km0wy7dzvm2/eu/Wc35vkvHvuKVj0hLzAavUNwOEUD9ymQcXPtAd2dk08mI+ch8fmZWF4o2Sq9zWtkZVViPz8Uklr/fg+XZCVXcRd+OQY9fn5eiIjg3J+aMJcvZ4L/i1Lp8k27nv8o9N6nWWpL0j3hIA2BL7+NQtr9+dwt751z8eZvTunyAsLOz16seCGuP3l+HYL1/zw5H4Koc9oGdwnAr9pyba5bqsQKOv15+4QSeffotvslr3n8ciUZoHD5hcLOx9k87OXASryEVh/tgOmx2bjWJYPYF+nUO8zVf/aM6Ho5leJaTG5cHFswsAneqsY9+mz2v4LnvB1b1C8SCiPYZqAE1e1W/kr9xevmdD/3cix9318hOhxOdnNNg3ierm5JfxSjtAXx9K3bgRUIvdlF5CKRDdk1KMtESivagCLeFdQVsdfKN96MMpihD7DpXu4O/Yt7ovdr/bBnW+eQl5JKzUVagbZTVCruPkwnNSctB3F7aOGh1VaXg03V0e4ukgr+2qZTlepyJ1faShdKiFwLMsbsf4V2HChA1hC0qLMi6hpsMOhGz5c6M/smYWEjiVc6LNhmw/KC6qWX+aAML86DOjS0hagvNoev53zxMgemo8glEhVXLKEO8YW+mxyd3cX3HvvcPz2+2nFWuIFOwKg0vYIcOO+J5cJFpdylgvxc5bTnfoSAloRWLDuCo9499LkSK39zL3R3t4Of0/siAXrUlFZoypE5dBey7ZaSqWq2jjBsvx83MDmYip/qRLkL+zGpNqozjAE0ktdcDrPA6W1joj0rsLImy57P10MxsVCD0yJyW2xS/92X7qsxS5muYJZ2kuV0+mCV4eOd0KVoeznxxLuMPV+W5SRt8fzaTdvPqKYfufOE/y6Tx/5SeMUk9CFVgQqb/4f4YJfa08NjSufFx6chmaqJgT0RoClr3V0sMOeRX30HmPOHRMHBoKFoZ74dssdjT50x0YF4effBb9nsf/arUniZau+Z00VAsP8bckWlXnKK4V/8JNHC1nhVBrpxmAEmBp/T5o/Qj1q+U5/VKcinM33RGj0UEyNyeXBe7wN9KcXiWLuew72TXCWUOLklDjC3aWRJ+AR++v6VlbvR8lw2dM1r3K7i4sTPvz349i1+yRmz/mIf3btPsEt9J97dpJyV7o2IgIFJcLfOf+phBjwlr/zRB6mDdTPAtOIdNNUVojAsytTrM5e5PX7u2Dt/mz8fqYIt8sM47z0xXG4+5l1mPDEanQK88Xl6wWYMbEPvv35r1Y/fabiv29Cb3y/4zR30YvuHICUtAI+78Inb7Oo45VWg9EOE3xzOhQs4a2TQyNPt8vO8vsElyEr5Qhc+miO9Dg5IUwv6koq7XEslZ3dtzyuZef6bLcv1aZpcmWhr6mPseq9vNzx2adztU4XHR2OVSufV/RRvxcbZs8eK17Stx4I8B3/l/ME6149+iu6LN92TXFNF4RAaxAw83QMBrM2ZVAQNv9PvqWxh7szenYLRl19Axf68d07wMeIQXjm3HMLljw7mvPFhD7Df0DPcIwa3NVgXmlgSwTKa+1hb9fE1fudvasUav2+IS2FtProB+/Q78jrQqarRve91FxnyNmxM6F/Ms29zdT7bm50PKz+nNv73t1V8MSza2pqaiqrKZZt1f/okgNWt0tr74dA6wFJqWU4e6MCM0e09Om1BnxYwqFfl1CwKznPcuj0t3Hl1DF8vuw5TE0cKTmU4eoVHAGvIPML7Z159iiWPnkrzuR7wcelDiU1jojxq8TwCMFinTH05sY0vHKP5h1/fqMrKqE99C+zw/zzMgvWU9HCRuDABQ80NNnhdg2ufeqgijv9LkE16BrSSsPUm5MvX/4z4npEYtu2P1FdXYu33nwY/v7mF3tBHQtrv4/0jYHBkfvGDaAY6tb+A2kP/g5dKLGIDHyGYiHHoMrQNaxtXMrJg6guL8ajT78O744j+WfW3De48LAEXt3dXLnQB5rQ1bcKs+KzVIS+PjxMX3JUZ7c/zntiePeWQv9GgRMCveplC30Wkc9YQp8RHxjkjZMnL2PUyHiu0iehr/ORtnmHolKlM35DVnsmkb2tGsfS2JD1aYx1IFBW3QBfdwmrJOtgD65OBtvPWgkC8tmY9PRr+OvoAaQc2aEYvHHLr9i17yjuHDMUy9+bp6g3x4uJdwjpdJlBnz5qfWPzcCnbRWMQH/W1RPU+2+kbu9w3fYSxp6T5WolAeZUgs+m/UiuBpOGtQ6C0sgFOjvQzbB2K1jXa0zcAXQeNxQdvv4CesVEK5srKK7Fh0z4EdR2H+uoKRb25XRxNOs2t9e/sKhhNtgV9By96SCbhOZ/hgpgONS1U/1I0iOr9AM96o+70pdaiOvNCgG+1DIncl7j4OJ1dmtezJGoIAYtDoLGxERs27cWJ5ItY8912VFU37zx3auCmMG0vxr5hmKukhimNWn39RjaA1tmsbFg0RGPkvuo65iXQBPV4+7+f94SDXRPiwnW/FIlCn6n3qdgOAn7egoGl9epYbedZEqeEgMUh8OPW33Dyrwv4Zv3PYDt5qcKSrzx03504cCQZKVeEgDYvPfsgHNWiFUqNtea6lGwXdA9rzqTIeGWue0yY9+miWi+FQ1uq96XWozrzQcDTTTAY5YL/3fVH8cTUZpWa+ZBJlBAChIAlI7Bz7xEknbqElWu2IC+/ZWx2xhvLE9AtqiMef2QyHn7gLiz4Nh25JbVY9VQUQmMmcPZZwJe8K7aTdvWxd49h+fxhLR790cvuqKq1R+8IVQG/76wnRvcs566ZLQYpVYg7fWNa7ytNT5cWggAX/IdPZ8gW/NsWswhgZNxnIc/ZashkSXzOpVcg00RZ+0b18sPsO1hQFirKCLBd+9frtuGrdVuRmqY5iU94aBBmPzwJsx+aDD9f7a5dotAP7RCIi8d/UF7O6q8rqlVDNjOGa+uBhkY73BarGgfg1HVXxEdU6y30Sb1v9T8fjQym51Qg0heGp+XVODM1EAJtgMD5GxWYuyIFAZ3i4OzRGXZhdm2wiu4pd6aXYv2iZLi7OODnl3vrHmBlPWpr67D2+1+wcvUWXEhJQ0NDoySHvj6eXLgzId8xLFiyj67KW/r3wA+r34G/n7eurjbRfuCCJ0arRej79awn3JwbEeyjfRMm7vRJ6NvET0Unk3zHP2/GYJ0d1TvcvzQJ2xba3j8+dRzovu0RyCyswT9XX4Ffx2i4ePq0/YJaVnDx8IZ/p1gUp19CWm4VOgc3567XMsyim+rrG/Ddxl1YtXYrTp+7gro6aSHj5emORx+ciP59YjFtknTgHTlA7Nu6XE53q+r71Twhp4I2psR3LnW1v/oYJvST0tzRuQ1c9tTXonvLQIAL/oT4jrIj90mpoiyDZaLS0hCY+dF5uPuFwM0nwCxId/X0RYe4QZi1/KjVebboa3T38P0T0C++O2bcO87mje3a4kfp6eaosOpnAv5wikcL33yWaldXHH5xp8+EfjcjReRrC35pzvZBICJEyL7JBf+MJVuxfN6Q9lmZViEEZCLg7OYJ3zDzS9Xp6uWH2rpGOFtgkJ7cvEKsWrsNq9ZuQW6efkZ3LCIdlfZBgEXu+2aREAho/3lPeLo2QtmZ4cRVNwzoIp1aWaRQFPqk3hcRoe9Gli4SN8/4K6rqZCPy3XyKPy4bNBogG4HyqgY4uJinOt3R2Q35ZXUI83eRzZcpBhQVl3HjO3Y+n5GVp5GEqM5hmDVzEh6bmQimvqdiWgTY/+ruoapW/EUVjvDz0Cz4Fer9wOa4CKblglY3BwQy8irR2b8Vxn1MFUVW/ebwKK2bhoqaBvNNFWsHVNdJG7eZ8qlUVdVg9Xc/8x39pcvX0cScvCVKUKAf5jw8GbMfSkRwkL9ED/Ouqq+R9v83NdWODsYzPD2S4o5bu1fAxUl4hmJinoQYVct+ZZ7FnX7nwBp062CchDvK89O15SPAVf3rX0tEHYplcUOR+2TBRZ0JAaMj0NDAjO5240ScXhhFAAAgAElEQVTyBW5pzyzupYqxje6k1mjvugdvDcH6Aznc4LO919a2XmVxHh43grsni9xXXG/HA/OIQp+tu/+8F8L9auHmLP0yJwp9Uu9re0q222Z/Mzo6F/ye7s4o0qw1sl2UiHNCwMwQYCFuf9j8K04kn8fqb1VD3CqT6ubqwoPhDOjbHdOn3AF78S9euZMFXyfeEoCNR/LQ2NAAewchx7g5sFOem447+3U3CilXcpzRPbRZVV9RbQ8PlwbEKNUpLySq9zuRel8ZFrpWQiA8SMm4L7ugHC50lKcED10SAqZH4OedB3lYW2aEV1RcKkmQg4M9YqM7Y84jk3l4W2dn7TncJSexwMpgH2f88mo8Ri06hoDOPcDcLE1ZqsuKUJp1FTOH+8PTrfUvIluSXWDv5IS48GbBf+SyBzTt5MWdPhP60aTeN+VPwSLW5jv+J5ftUliQ6ks1Re7TFynqRwhoR6C4pJxb13+1dhvSM3I0diaju5bQ/LqkLz7bmYEfjpxr2diONTNuDcake7qBvZC0ttQ12KGqzgETegvn+DV1djh62QMjYqUT6ohCX9NLQWvpofHWgwBF7rOeZ0mcWCACLMTt6m9/5jHsdYW4Zbt5ZmWvK8StBcJgFJKfHh+Oe4YFoahcOrCQURbRMgkT9r4efA+lpZf+Tcm5njh5+gIm3dKVDzpzwxXMqM9ZYglS7+uPK/VsRoD/lEL8Bb1/c7Xuq50n8jBtoJ/ujtSDELBhBNgZ9FfrtmHVmi04d/GqxhC3fr7emDUzEQP6xmLi+OE2jJhhrAd5O4N9rKGczvNEn0iBk+JKezQ22vEEPOq8iTv9ToG1pN5XB4futSLABf+X88bLjty3fNs1EvxaoaVGW0KAucxt2LSPG92t+W4HKqua/a4PKAHBjO4emXEXF/D33j3a6ozulFilS5kIMH/9TZeC8ECPHFT0iuSR+46nSp/ri0Kf1PsyQbbx7iqR+2wcC2KfEDAYgd17DuBGWirPK19aViE5D8srz0Lcst38/dPGUohbSZSo8my+B0pqnODm2IiKRiCjyBFhftJ++EnX3MF2+lQIAUMQ4Dv+yQt+lG3cN25AoCHr0RhCwKoQmLfgHQU/LK98TLdIHhDnkQcmws3NBYlvn8K2l+MVfeiCENCEwLEsH4yPyufN3xx0QKCfK0b1VA3Uw8/0r7nD170B0R2aLf41zUn1hIAyAkWlNa1Ly/tMYmeK3KeMKF3bJAJ//PY9+kYblnbWJgEjpiUR2HY5EPfG5sDLuQHppS6oqKzGvQk3o63cHCGq9yMD2Jk+CX1JIKlSKwLlVYIBLP9ljR0kPwHK0g1XtC5AjYSALSDg7e1lC2wSj22IQG2DHSrr7LnQZ9GV96b549ZulbBTivwrCn12pq8pgE8bkkhTWxkCXPDPndpfNluHzkln9JI9EQ0gBAgBQsCGEUjO8cKgUCFAE7Pojw8uR3yUjwIRQb3vBrbTp0IItAYBv5ueL6q6pNbMSGMJAUKAECAEZCPAjPq6+FZjw/lgnMr1xIAOzYF6xJ2+j1sj7fRlI0sD1BHwdBMie3LBz4z75Jb590bJHUL9CQFCgBAgBG4i0NAIbLwQjAd6ZCOl0A1hnjWY2Subt05fchSi0Cf1Pv1kjIVATqGQlMfgHf/wnpaXxtNY4NE8hAAhQAi0FoGz+Z4orXWEq2MTjmT6YEh4cz4GRwcHJF0j9X5rMabxqgjU3kwjbrDgV52O7ggBQoAQIATkIHA82xsTovLxZ6Y3BnYog6O9kGqXxeq//+5xIPW+HDSprxwEuODfsnSanDG8b+Li47LH0ABCgBAgBAgBIDAyHtNjc+DtUo/UYjf0CBSCPzGhv/ZsKCb1KqQzffqhGB2BEH9XPift+I0OLU1ICBAChIB2BJxdPeHh1IA/0v1we6TgIcWE/u6r/ugZqBq0R/tM1EoI6I+As5OQMppH7puxZCuWzxui/2jqSQi0EwJOjkrOzO20ppxlnB3p3VkOXsbum1Nciwf+fQ729g6wd3KGnV37P4/62iqgsRG39vDB4vt0x0Q5muGNwowLWG3XHQFudQj1rIW40+8RWI7BYaUYtShZdjRVY2NL81kfAo0sIQQALvgrqupkc7ht8UCK3CcbNRogFwF/TydUleTBOzgC9o6CK4rcOdqqf1VxHjoGUNS+tsJX17xpuVWY89llhPU0j03LqeJ83L30NDYv6K2R9J2p/sgqd4GrVwBGRBQhyrcadY2Cen9WfKbGcdRACBgDgYy8SnT2B9r/9dgY1NMcNoVAU2MTKopyzY7nhnr5L8xmx4SFElTf0IQ3Nl6Df6dYs+HA3TcQpVUNYJkaNZXMclfEBVTA3TuIC33Wb3eqP9hOnwoh0F4IcMG//rVE2euRcZ9syGiAgQh8OKsbyvPSUVddaeAMxh1WX1uD3JQkLJ1JsSyMi6z+sy1cn4q03Bo4u5tXyOSQmH5444drkowk53hiaHgxciqdkXstme/0t18OQIB7HYaENbvyscEbFpmHFkOSEaq0WATsb271uarf090ZRYJfv8UyRIRbLwLxnTyxb3FfPPKf87iRWgsnN0+Tqf1ryooQ4OWIt++LwMBu3tYLuplzduJKGTwCQs2OSgcnF/x+thivSVB2Mkd4SYnwqkFDbTXWnglFj4DyFkJfYihVEQJGQSA8yIPPY3Ba3hA/Z6MQQpMQAvoisPrZOH27tmG/yDacm6aWg4C9A//3JWeISfoye6qtKUHo4FGLviFlCHKvQ3rZEDzWO1MlEY8ycSxy3zeLblWuomtCoNUIVFYL2fkM/stZ+TzLMS5M0mpqaAJCgBAgBKwUgYuF7iisFgxTg9wLucteeZFmoW+lMBBbZoBAQUkN0IGM+8zgURAJhAAhYM0IHMnwhZtjA6bE5HD1foBrHUrz0qyZZeLNzBHgR/0Uuc/MnxKRRwgQAhaJwI4rAZxuloBn06UQrt5XjsmviSky7tOEDNW3BgF3VyGAD7nztQZFGksIEAKEgBYEsitc4O1ch7JaB8QFlGs809cyBTURAkZDIMBHKWTvrj9TjTYxTUQIEAKEACEAnMgWrPhLa514hL6hStn3dOHzxppzurpQOyFgMAJ8x//ppiTZEwiR+2QPowGEACFACGhF4Nr5JBz+7j2cSL6gtZ85N+656oe/cj05icx6X47QZ4NOX1X16zdnXok2y0EgPUdIBkWqfst5ZkQpIWATCBz4cRWKs9IwcuLTWLlmC0pKLS+qXXqZG39WLEqfnXmnm7CJ3xQxqYoAF/xjB+lOLKE6DFi64Yp6Fd0TAoQAIdBqBBKfehXhPQbzeV58+UNE9EiEd8eR+OLrTSguMf+XgP69hTDCsf6VGBpeYhAerzxkDjErDCKdBlkAAtyPf+7U/iiqkhcL/dA5lkqykwWwSCRaCwJlVfX424oUZBTUmIylDr7O+M+caAR4mVfCIJMB0gYL+wSGoM/4h7Dxoyfw1vtf4+edB/kq/3z1Y7APKzF3/g1ewRFtsHrrp4yL7qI1OI8+K8RH+cA8AlTrQy31sRQEIkKUIvdZCtFEp20jMPOj86hqcISbT6BJYrQ3NtQjvzgPjI45d4Ri2pAg234gRuY+KzsfO/Ycxp61u1GYl40dHxRoXMGzg/nmSdiwdQ9m9+mlkXZqIARMjYDBIXvn32u+f3imBpXWNy4Cv54uwpsbryGk+wB4mTg1r1dQOBobGrBi/wW4ONph4sBA4zJrxbPdyMzF5dQb2L7rEH7ZcwjpGblaM9kxKDpHhqKishp5+UzDCHQICcClExt5vnpzhaquvvURTSlkr7k+XcumK6ewCpG+gMEhe4f39KeQvZb9G7AY6pnQ9wmLgoOJhb4ImL2DAwK79MQH246S4BdBAbgQ/+3ACaRcScf2XQfx+8GTSq3Sl/b29hg1YgBiunXChLHDMGJYPzy3KgW5JbVYPTcaQV3HKQbmXdkFFxfKEaIAhC4IAZkI1NY18hFc8M+bIRjSyJnj/qVJ2Lawt5whKn1//fMKPll3BGUVtYp6e3s7dI30x9IXx8HbUwg0oGi0gYuqmjrMW7YTF1LzFNy6Ojvi5Sdvx9B+tpkcprGxCS6ePvDwC1ZgYi4X7r7BKKmsh4+7we/P5sKKXnQ0NjbyXTrbrbNdOxPwmdn5WscywR7ZMQR3jRvOBXtM10iEBLNNg/bCUjCLQj/A3wdXT23WPsDKWr+aN9DKOCJ2zAkB/h8rIb6jbOO+iuoGg/hoamrCH8fS8M4X+1uMZ//kU9IKcPpSDhL6257h4KMLN6KwWDU/cnVtPV77z16sf286gv0Fv+AWwFlxRVFFPViqU3Ms9o6OKLVywV9aVoFf9hzhO/hf9h5GTU2dzkfh7eWBCWMTcNe4BIwfPcSgXXpp3g2+TnzPbvh21Rs617S2Dp5ujmTcZ20P1Qz4CfEXNtTtvlUZO/trBft33hqDMQnd4OLkiKy8Mvy45wzOX2ne7Yodd+y/CKYhSE0vwk//eVCstqrvyXPXorKqDlPu6IGRQ6IQFxWMc5dzsfPAJfxy4BIefGkDdq96DHY25hRc39Bk1s+5zszp0wUec49jO/hLl9PBBPu5C1d1DYGPtwfuHJOA7tGRmDBmGOK6y3cH1rVIQEQMMi/ugKeH4A+vq7+1tadmlqNDmJ+1sUX8mBgBZychVj8X/JMX/Cg79/N38/vKZuGT9UcUY3atfAxMtS+WmC6BuO1mPAG281cua7YkoaC4El4e5rnzU6bV0GtnRwds+eohleE9ugWDfQL83LFuazLe++oA/jl7hEofuiEEdCFw7OQ57hKXkpqOXfuOoq5Ot/HZgL5xmDg+AdFRERh/x1A4O7e/+6KtCn32PBesOCP7f7Ku3wG1EwIscl+rjPuYKgrQ/Q9EGeqT5zIVt8pCX1F580Jbm3pfa7l//fk7NLIy8fZYLvgvpGo/T9U4ATXYDAL19Q1Iu57Jz+CZa9yly9dRUKg9iIyDgz06RXTg6nm2g+8e3QlBgbTbtJkfDTFqcwg41udfM4jp7KIadPUX1Ab6TpBfJMQJ1rd/WUUNqmvq0dAoWCIyTUBeYfMcQf5CMAJxvtq6BqRcy8eR5Ot8nI+XK6aN6QV3N+27FWZ3sGnvOaRnlaBvXCgGx0fA1cVRsZaLs4NGY8P6+kb8uPsM10gwg8Rp43rCzUX7eiK9yt9Mta+pBPi686aSsmpNXajehhBgwpx9mGBnRnZFxbrjukd1Dkd01whMHDecn70HBvjaEGKWx2qXUNX/bZbHAVFszgg4NtVU4KcFw6D7X4cqG49/dBq/LpGn7k8cGYcNv5zmEx06eU2nAd+qjcexff9FxcIVVbWY8dL3ivs9X81SXI+Z9ZXiWvlizeYkDOgZjqX/aHYLEtvr6hsw4YnV4i3//vl3ITFIQr9OOJQkvBQNH9AJi+aOVunHbua88hOuZRar1K/eLLgwrV82HcEBxjHGE638+8R2UFmLbqwTgdraOuzce4QLdibgjyed18ko27WPGTkYd41N4AJ+2OB4nWMsvUNTo2EGxpbA97tP9CbjPkt4UBZGo0ki900e1Sz4F3+yD9s+e5jvrI2JnZeHM8YMi+ZaguOnM5CRW4oTZzMkl3jj098U9U6O9hibEI20zCJuVCcKfUUHtQtmjCgK/aF9I9Glox+uZRQrXhaYW943S+9RG2XY7fb9wssIe4GhYp0IHDiSjF/2HMbFlOvYt/8YmOucrnJL/x6YOH44unXpyM/hnZza3VZXF4lt1s6sg+przVMD5upEuc/a7MHTxEZBgP+nmLr0sGxDkhA/+YE02A74qfsH4Yvv/4emJiDx6TWIDPXFw3f3w223tLQMfuGRBLDP/S/+V2Hcp8mq//+euh23D2oZTfDZN7dxv/jDSdcwrF+zi2BhSSU/EmAoMpqmjVUNsbng/V0aXxi+/TkZX/8k7Ox/+fJRODo2/6FXVdfhidc28xcOpppnxw2tKewFY+eBFD7FhNu6t2YqGmtCBP44nKQIbLNv/3GdEesYqYMG9ERMN8FyftzoIbAlwa7rUc0ZE4oVe7J0dWv39rL8DMy9s/Uv6BS5r90fnU0sWFkt2OUZvEVY+TxTJcoz7mPIMgHLPkyN/98dp3A9qxhvfvYb/6z713SEBBqmHpcS+my9Zx8cirlvbMWhk9dVBP8Lb2/nD3r5q5PAPArUCzsa0HR8IAr9mYl9VYQ+m8PN1QnLX5uEac+tx8frDuPVp0epT633vejixwZs+PcDeo+jju2PAAtHy3bs3C1uzyFcv5GjIML7U8WlyoWfrzc/b4/pGsG/o7vaZpAmFVD0vHlgeAgiA13x+qZTCOpqHsca9TXVqMy7gbsG9NGTC+pGCLQvAgUlNUCHVoTsbS25s+8ZiLLKGmz/vfkM/8lFmzH/8RFgqnNjlZJyQR1YUdkcIZC5BrKdNCvRnQMMXmrk4JYaBjaZt6fgdnj5muYkI7oW/erH49yvn/WLivCDn49t+jPrwsnU7QtefhdZGZn464ygldFGj6OjA8aOaj6HH3KL4ZEvta1jK20JsT6oq76KisJsePib1v6lPD8T5Xk3sHCq8f53WcJzZIbR167l4tffTiEvtxjOLk7w9nbHLQOjER/fUotrCTy1lsb8glKcO3sdyX+lctdZDw83jB/XH507h7R2aqON5zt+Q4z7Ehcfl23cp071Cw8ngH2YNf2s//sRzHjvtY/34pNXE9G9i7zMZ7kF5WBq/cIS1ch34pqN7GzhZmGGhWJpTUCc2a/8JE4j+Z2ZWwbmiSDHPZHR9q+Vf6Cyug5Ojg78GGLSKMrNLQmwGVTu3NUcgZIJ9s6RYZg4Tohax6zoH/nsGra9bB47UjOAy+gkMAPj7ScK8PH2P2GqYEpuzvZ4fmJHjOzZC8xWyBhlw6IhZm/c99qidcjIkN7cHD58HnPnTkT/fl1bwMFeFlrzf7fFhGZUMXvOR5LUHDt2icuB2bPHYsjgWMk+7VHp7qoUwKc9FtS2RkSoD5iFvqhaf+aNbfxe2xjltt2HUrBs1QFeFejnjgcT+2JQ74488A0LgavsCcA65RcZnuma/WjFwqz9dZUmsP7NgYq09f/g64M8Sh/rM3VMTzz9gPwcCtrmpzbjI5B8YgeiQkgbY3xk9Z/xrgEBYB8q7YMACwC1ZMm3yMouAnvZHT9+AKbcPVSxOAvrvHbtr4p78eJ//7uEL778BTNm3I7Ro6z3OOSdtx9BcLCqu+yL/1iBkpJKrFixy6SCP8BHKWSvIcZ94wa0PBcXH7Ch34kjY7HtN8GCXd85dh1M4RHtWH9l9z5xfLmSil+sCwv2Ei9lfyu/qT59/2CjuewdOJ7GhT57cfnXS3eCvQxRIQQIAdtEwJyN+z76aCsX+uzJfPH5My0ekIuLE+bMaek+XV3TfNzaYpCVVKxa+bwkJx+8/zhEbcDRoxcwZIhpdv1FpTU8cp/BeqlnEjtLMtiaShazX3tp3m2L/c6n5oqXkt9pGUIeb+VGlgFQLGJwIPFeznfSeeNYFdfU1mP5t0f50svmkdCX8wyoLyFACLQvAlnZhe27oJWtVlYufRzdHmyWV7XSqt8QIh9/dRNWvDFF41CWpEeqsMh7BcVQSeEr9qut1R7E4+0vfhe7Kr6jOwXirtu68+BAD8//AV8umQIPd1X3xFc+3KPor37BjPdKy2u4pmHc8Gj1Zn7PXigc7PV7r1r0n33cXdHBwQ4dQ2inLwkoVRIChIBZIKB83KkPQV9/I/wvzc4SNmFsx3v9urBhCwzwRmJi85EmCzl97tx1/LDxEDIzBfsBLy83PPHEeMTFRmi1Dfjxx0PYuesEt6tyc3PG00/dhZ49I/H7/tO4ejUbd08eCj8/aa+xS5cy8PkXv6CkpAIeHq6Ii4vAU0/eqXU9fXiX6tPFDIz82tW4j+2+xXP8/j3CwD71DY3IyCnFnsOXFRiteVc18A0Trit/OM7bmRvgwN7hSD6XhUem9MdDk/ti39Er/GHf9/fvMHNSXwzsFY7vtp/CrgMpPD7A/mMtM46x+AAsKmBuQQXufmYd7pvQGyMHdcXh5Gtg2QC12QEw17oXl+7AuSu5nJ+5M4YgrmsQ3F2dceBEGo4kXceFq3mSRw8KJpUuxABDTY3AvS98q9TS8jI82BsfvjyxZQPVEAJWggCziCk3MO23JUDQoJaETIpmczbue3DGSHz6meAO/c47G/DUUxM0ClTG28GD51RYTE3NBvuw0qlTsELwl5VV4YW/f6nSl92w+vff38TrV654roUw/uSTbUhKTlUZV1VViw/+LYwZODAax4+nYOyYfi3ozM0txsKXVaO3VlRU8/5zjqdg2b9mwd/f8KNhkSj28iGWbt3CxMt2//bzFja4unTrbUYYS9ijnLRHXMjXyxWhQd7iLf9mEfW+/fkv7t7GfP/ZhxUm+Fnf6eN78zpm0f/x2uYMgKwPcxuUEvysjQUNEtu+33Ea7CMWZlz3056z4q3KNwuPuviZ0Zj+9+94vaimV+lkwA3zPCgu1R6NzFNNM2HAMjSEEDBrBDzdHFBZoztyoVkzoYW4sqoGeLjIy3OiZbp2b+rXryu6dQ3F5StZ/PPKq2vx0YdPcEM/KWLuGC2EdmceAOcvpCMmJhyREYLXlpRQdXV1xhOPj+e7dWZT9fXXe3DkqGD7xcb3iFN1mVQW+o/PGYcuUR3Q1NiE9z/YhMLCMpw92+zFpU7fsveaPbMef3wcBg/qjmPHUrB161Fux7Dqq934x4tTZXlmqa/BtBjr1gnGjlFRpnU79byZt4YL/mWbLuLJ+3uo02v0e2Z8d/zMDZy+lMMFLtvpM0HP0s5OHtUDd46IkVzTz9sNW5Y/hI/WHMavf15BsL8H+vVofmtiwv3WgZ3x1ue/8cQ6LHkP29H3jQ3lbnFMC8AiBKqXV54eiUen9AfzCmAx+pn2gQn8u26LBZtDFPzB/i3VQ8yvnvGzflsytv52ngtsDzcnDIqPQHz3DpgwQv8oe4w+fQvDiwohYM0IjOjhiyMX5WYPsRxEfjtThMExqpsbdeofe/cYls8fpl5tFvfMPXnhwul4772fuCCvrq7Fk099grCwALy+5MEWO/IHHriN0/3HgTO8P9uBS1n1Ozk5QMo4jhkK/u/YJTQ0NOKLL3bylwwRiLfebs7doj6W7dZra+vx9N+Wi91VvlMuZ/IXA/YS8vLL0xWRMQcNigH7zHn8Y1y4cAPLlm3E/Pn3qozVdiMa8Sn3iYkOw7x597TARrlPe15zwX/kYgGelLnqtsUDDYrcN7BXR7DPY1MHyFwReP7hYfwjNTCmcyBWL235cDzcnPHI3f2lhvC6jh18MGvaQP7R1GlInwhNTdx1kLkPtqZoo68189JYQsASERjX1x8bDuWivqEJjg76ucJaCp+llfX4Yncmdr6q3Z2twgKOOl56aSpKSyuxffsx7N2XzM/kmbBkhVn7M1c/OYXt9DWV/v278p14uZphnHhkcNeEWySHOjs7clU92/krF+aSyF5cWFm0aIZyk+J62rRh2LjxEC6lNKeTVzRquWBrssJeOsTC5vjHSytx3/QRGDxY/02hON5Y3+k5Fdyq32SqfmMx0lbz1NY1PzS5wYTaiiaalxCwFQTG9vXH7r8KMaG/dfnn70wuRG19S+8kS32uLEof29GzTKf7lc6x/7XsR7y8cHqr2GKahNzcEpw5k4YUHcI3Pl6zl1lYqD/f2SsTw14YmApeW/Hzbanp1dZfbPvs07n8kiXaSrmcBWY4uHnzEe7H/+WKnSYV/CKNXPC/dLe0il3sJPV9/9IkbFto2SFHtUWQmvS3tQq2mVcBFdMg4O3ugCY9MtWZgjr2+3G34LNaU2Cm75r3JQRj1KJkqxP8n+/KxPwpqmfUUph8NY9pVC2nPPzQKLDPwoXfIDevBFeuZOHHnw5h2tQEWUwwe4GsLHnugsyCX5vBnJuEXRSzTxCLlGpebGvNt729PbrHhPNP4sRBCj/++Qu+xrtLH2vN1K0eywX/sNhAyD1RswRVlC50xs7+GvZ2dugS4cc9DErKarDncArPHMjGdg73w0dkQa8LxjZtd3N2QFVJPjwDw+Dk6t6ma8mdvLIwGx18zSf+tlz6zb3/2ufiMOGtU3h3ZhR6dzJs92VOPI59/S/8NK8XfD10K1o93RzNPmSvFLbvvPMoCgpKMW/+19ix4zjCwwL0DlajLIAXLrhXRZgzl0B17wAWDp0V9j9cW6mva7mzV3a1ZnYJ7VHG3NEXe/YmIz9frrQ1HnURIR58Mt2/QOOtaZYzMUv6K9cL+UedQCb0abevjopp7styb8A/Ur5mqi2plevP3Ja0WOPc4QFCsqv561Kx4/8sO9/B7uRCsJj++gh99ixTM8vRIczPIh9rQECz4eINDbH8tTF2zz0JKkKf9ZVSy4s5UCoqa8DCBLOIgVKFuQOqF+arL5bwcONHoRXnVv721RBDQLlPe13zCDMsZK/c8t381hm0yV2vLfozq3xm2c+M61imvcmj47Dk2dH48eMZ3GKfhH5boC5/TrZL8nMsR2luuvzBbTCivCALmWeP4vt/tL0nTBuQb1FTMoG/+tlYrvZnyXiqdATsMjfmNh7J47TvP1uMLQv0PxpdsEI6mJm58aeLHqaGVy/s7Fu9MH96VmJjO+LO8S2POU6evKI+ROX++w1CrhaVyps3ymp9sX3o0FiF8SEzUGyPwgITmbow4z5WDN7xM1UU0GwAZ2qGDF2f+fJTMW8E2C5p/Qs98O2BHKzcK4Q2NiXF9ycEY8ZjveF5M9OVKWmxhbWDvJ15JtCfj+fj2ZUpSM3RHuvCnDBZMDWy1VlMzYkfRgtTyTNf/mfmtgwkxoT66jX7OMlM6LOgOWLx9RHUzGfOXMOYO5rrWbv7zR345ctZKCoqVwm0w9L+KlvIi/Ox7wB/LxQUlnHDwnvvSYCbm6AlYm3M/Y/FAJAqzOPgny9NxalP5RQAAAfzSURBVDtLf8DfX1yBJ58Yj0GDWlrbr1n7K7ddkJpDvS4tLYcn53F3b6ZB7CPEExAEvyYPBLFve3zb1d4425RT34BGn5bEaiPg0SUHrO4HrY1famsbBBauS8U7M6PaZnIzmDXx7VOUltcMnoOlkZDf6IpKSKuuTc2L8lm8SAsTdpWVNeIt/17x5XMtAt8oj+3VsxNY3PrXXn2A91duY4FufHw8uJEg25EPT+iBg4eECIDq/vrK4wICvBAa6o+8vBLk5AhahFtuieaugOwsX12tr2xMyEwFBgyIRl1tPQ/ew7QQ7AVBKhGRCqM3b5jgf+PN//I7Fma4a9dQbu9w40YBxGNBxtMH78+RGt4udRl5FRga3Q9c1e/pavDGv12IpUUIAUKAECAEzAMB0U9dmRp1oT9lytAWQp/1F8/l2fUZtYh6I0b0UkzJ3O2Skq7wOAEs+I22zOZDhjTv1AsKysA0CqLQHze2v8JY28GhZVyBBQuaY7+wjOsstO9fp65CPHqQE2lPOXMrsytITk5Fenq+QuizvAGvvnK/gkdTXIQHCVoXvuO/Ul4D95vWfvoSQzt+fZGiftoQoB2/NnSozVYRWPlHAcYO1+ybbg64sCA47Oyd7cjZNYvc16dPF53R6S5fzgQz+mOR+oYOiVN5GWDzMKF/8VIGOncKRmxsBKReNKT4Z0L21KmraEIT+vfryulh/d5887+4mpajM6jQ0T8vIDu7GP7+nmC+/9pcBKXWF+uYKyNzScwvKONzBQf5cD7EdlN/R/rGCGf8f/v8JL5ZdKssegyN3CdrEepMCBAChIANIvDtvnSzF/xOTo4GBaNhAlWTUGVzdu/ekX/kPvaIiECwj3phQp8VXZEEhwyOVR9q0D1T8bOPORYxcp9+eWPNkQOiiRAgBAgBQoAQIARkI8AFf4hMwz62ys4TebIXowGEgDoCzGK/tq6le496P7onBGwJgckJzUnIbIlvubzu25eM4mLBRU197MGDZ3nyIFZ/9+Qh6s02fc+t+j57eoDsyH3Lt13DtIGWGWDCpp+4mTEf19EdJ6+WYUiMj5lRZhxyKqw4vaxxEKJZpBB48I5Ii4zcJ8VLW9axwD0s+Y22wo4VEhMHa+tiM21i5D5S9dvMIzdPRqNC3HAuvX0CaJgnAkQVIUAIGIqArmh4LJof89enoooA3/GzyH1yjfvGDWhpRKE6Nd0RAroR6BXpgedWpWDWaPM0htHNgeYeOcW1SIi1Tk2GZq6pxRgITF9yVPb/ZGOsa2lzDBsaB/ZhhbkUFpdUwM3VWSUAkKXx1Jb0FpXWtC4t7zOJzNXE8iP3tSXINLd+CAyN8cbZ9Ar0jBB8TPUbZd690nKrMOezi9i7yPJDW5s30kQdISAgwIIISUXNI3yaESivEmQ2qfqbMaErEyHw5NgwLNt8HdW11mPk9/7WdMB60q6b6JdByxIChEBbIMAF/08LhsmeO3HxcdljaAAhIIVAZJAruoe58xSsDQ2WLy2X/5IBb3dH7HqtjxS7VEcI6ERgwyKyQtcJEnWQjYCft5A0iXb8sqGjAW2BwMJpnbBnUR+Mef0v7EouhJhruy3Waqs5D5wvxoMfngM7239rRhQc7LXnCW8rOmheQoAQIASkEPB0E/I/8JC94947ItuQ5Py5DIzr1Zx3WWoRqiMEDEHgq31Z2HosH+U1DZg0MBBRIc25sw2Zry3HpOVW42puNZKuluPeoUGYcWsIfDwo90VbYm4Lc49alCz7f7It4EI8tg6BnMIq3BLVx/C0vMN7+pNxX+ueAY3WgACz8GcC9I2Nadj8v3wNvcyn2s3ZHs/dFY67BwWZD1FECSFACBACagiIwdJoa6IGDN2aBwKuzvZcXW4e1BAVhAAhQAhYDwJc1V/haIdSl5YpC7WxSdn5tKFDbYQAIUAIGI5AfqMrKiGcxxo+C40kBFQRqK1rQLegOJBxnyoudEcIEAKEACFACFglAs5OwgafC/6H/v2nVTJJTBEChAAhYIkIsMh9VAgBYyMgektxwV9R0yB7/m2LB8oeQwMIAUKAECAECAFCwDQIZOQJeVFI1W8a/GlVQoAQIAQIAULAJAjYO4bFYc0Lg2QvTpH7ZENGAwgBQoAQ0AsBitynF0zUSSYC9je3+vZ2dnbwCQmXOZy6EwKEACFACBAChIAlIRAeJCRC4/I/u5DyoVvSwyNaCQFCwLoR2Hwww7oZJO5MioBdU1NT06i/rzIoPOQfSdkoq6jjDNzaLwTeHs6oq2/E7qPCj9bJ0R5jh4Qjt7AKx84JEdiC/V1xSw8hwtn2g+kK5u8aHsGvpeaU6ic155krRbiWVc7n6dXVD51CPfm1+ngpGllH9X6sTmpOKRql5pSiUdM6UnNK0SM1pxSNUutI0SjVj/hW/Q1JPRspLKWejSZ8peak5w2I/weksLS137mIBfsNUSEEjIFAek4FErr3Q6sEvzEIoTkIAUKAECAECAFCoO0RUBH8ZTXFKKrKbftVaQVCgBAgBAgBQoAQMAkCBSXV6NcpniL3mQR9WpQQIAQIAUKAEGhnBAJ8hEyn3Lhv15+p7bw8LUcIEAKEACFACBACpkCAC/5PNyWZYm1akxAgBAgBQoAQIATaCQF2xs/KTXf+dlqVliEECAFCgBAgBAgBkyLABf/YQV1MSgQtTggQAoQAIUAIEALtgwB35yOr/vYBm1YhBAgBQoAQIARMiUCkbwz+H8zFoJVdnqQcAAAAAElFTkSuQmCC;" vertex="1" parent="1">
                    <mxGeometry x="100" y="440" width="301" height="229" as="geometry"/>
                </mxCell>
            </root>
        </mxGraphModel>
    </diagram>
</mxfile>